Upgrade_CJK_Try-Bold.ufo
<glyph name="exclam" format="2">
  <advance height="1000" width="312"/>
  <unicode hex="0021"/>
  <outline>
    <contour>
      <point x="64.0" y="238" type="line"/>
      <point x="248.0" y="238" type="line"/>
      <point x="248.0" y="740" type="line"/>
      <point x="64.0" y="740" type="line"/>
    </contour>
    <contour>
      <point x="64.0" y="0.0" type="line"/>
      <point x="248.0" y="0.0" type="line"/>
      <point x="248.0" y="164" type="line"/>
      <point x="64.0" y="164" type="line"/>
    </contour>
  </outline>
</glyph>
<glyph name="quotedbl" format="2">
  <advance height="1000" width="496"/>
  <unicode hex="0022"/>
  <outline>
    <contour>
      <point x="56" y="424" type="line"/>
      <point x="216" y="424" type="line"/>
      <point x="216" y="740" type="line"/>
      <point x="56" y="740" type="line"/>
    </contour>
    <contour>
      <point x="280" y="424" type="line"/>
      <point x="440" y="424" type="line"/>
      <point x="440" y="740" type="line"/>
      <point x="280" y="740" type="line"/>
    </contour>
  </outline>
</glyph>
<glyph name="comma" format="2">
  <advance height="1000" width="308"/>
  <unicode hex="002C"/>
  <outline>
    <contour>
      <point x="151.0" y="-189.0" type="line"/>
      <point x="200.0" y="-142.0"/>
      <point x="252.0" y="-60.0"/>
      <point x="252.0" y="75.0" type="curve" smooth="yes"/>
      <point x="252.0" y="180.0" type="line"/>
      <point x="72.0" y="180.0" type="line"/>
      <point x="72.0" y="74.0" type="line" smooth="yes"/>
      <point x="72.0" y="-29.0"/>
      <point x="52.0" y="-80.0"/>
      <point x="16.0" y="-152.0" type="curve"/>
    </contour>
  </outline>
</glyph>
<glyph name="one" format="2">
  <advance height="1000" width="434"/>
  <unicode hex="0031"/>
  <outline>
    <contour>
      <point x="146" y="0" type="line"/>
      <point x="346" y="0" type="line"/>
      <point x="346" y="752" type="line"/>
      <point x="32" y="729" type="line"/>
      <point x="32" y="536" type="line"/>
      <point x="146" y="548" type="line"/>
    </contour>
  </outline>
</glyph>
<glyph name="two" format="2">
  <advance height="1000" width="601"/>
  <unicode hex="0032"/>
  <outline>
    <contour>
      <point x="52.0" y="0.0" type="line"/>
      <point x="549.0" y="0.0" type="line"/>
      <point x="549.0" y="184.0" type="line"/>
      <point x="253.0" y="184.0" type="line"/>
      <point x="296.0" y="201.0" type="line" smooth="yes"/>
      <point x="437.0" y="252.0"/>
      <point x="549.0" y="364.0"/>
      <point x="549.0" y="512.0" type="curve" smooth="yes"/>
      <point x="549.0" y="663.0"/>
      <point x="443.0" y="752.0"/>
      <point x="268.0" y="752.0" type="curve" smooth="yes"/>
      <point x="195.0" y="752.0"/>
      <point x="114.0" y="733.0"/>
      <point x="60.0" y="702.0" type="curve"/>
      <point x="60.0" y="511.0" type="line"/>
      <point x="115.0" y="551.0"/>
      <point x="180.0" y="571.0"/>
      <point x="245.0" y="571.0" type="curve" smooth="yes"/>
      <point x="307.0" y="571.0"/>
      <point x="355.0" y="538.0"/>
      <point x="355.0" y="473.0" type="curve" smooth="yes"/>
      <point x="355.0" y="385.0"/>
      <point x="248.0" y="299.0"/>
      <point x="113.0" y="253.0" type="curve" smooth="yes"/>
      <point x="52.0" y="233.0" type="line"/>
    </contour>
  </outline>
</glyph>
<glyph name="three" format="2">
  <advance height="1000" width="598"/>
  <unicode hex="0033"/>
  <outline>
    <contour>
      <point x="294.0" y="-13.0" type="curve" smooth="yes"/>
      <point x="453.0" y="-13.0"/>
      <point x="550.0" y="68.0"/>
      <point x="550.0" y="195.0" type="curve" smooth="yes"/>
      <point x="550.0" y="281.0"/>
      <point x="501.0" y="351.0"/>
      <point x="407.0" y="377.0" type="curve"/>
      <point x="499.0" y="405.0"/>
      <point x="538.0" y="478.0"/>
      <point x="538.0" y="565.0" type="curve" smooth="yes"/>
      <point x="538.0" y="681.0"/>
      <point x="443.0" y="761.0"/>
      <point x="281.0" y="761.0" type="curve" smooth="yes"/>
      <point x="210.0" y="761.0"/>
      <point x="137.0" y="746.0"/>
      <point x="73.0" y="719.0" type="curve"/>
      <point x="73.0" y="534.0" type="line"/>
      <point x="125.0" y="564.0"/>
      <point x="192.0" y="581.0"/>
      <point x="253.0" y="581.0" type="curve" smooth="yes"/>
      <point x="306.0" y="581.0"/>
      <point x="339.0" y="562.0"/>
      <point x="339.0" y="522.0" type="curve" smooth="yes"/>
      <point x="339.0" y="475.0"/>
      <point x="296.0" y="451.0"/>
      <point x="225.0" y="451.0" type="curve" smooth="yes"/>
      <point x="184.0" y="451.0" type="line"/>
      <point x="184.0" y="296.0" type="line"/>
      <point x="233.0" y="296.0" type="line" smooth="yes"/>
      <point x="305.0" y="296.0"/>
      <point x="351.0" y="274.0"/>
      <point x="351.0" y="230.0" type="curve" smooth="yes"/>
      <point x="351.0" y="187.0"/>
      <point x="314.0" y="167.0"/>
      <point x="256.0" y="167.0" type="curve" smooth="yes"/>
      <point x="188.0" y="167.0"/>
      <point x="113.0" y="187.0"/>
      <point x="56.0" y="223.0" type="curve"/>
      <point x="56.0" y="35.0" type="line"/>
      <point x="134.0" y="5.0"/>
      <point x="218.0" y="-13.0"/>
    </contour>
  </outline>
</glyph>
<glyph name="six" format="2">
  <advance height="1000" width="658"/>
  <unicode hex="0036"/>
  <outline>
    <contour>
      <point x="335.0" y="-14" type="curve" smooth="yes"/>
      <point x="496.0" y="-14"/>
      <point x="614.0" y="80"/>
      <point x="614.0" y="260" type="curve" smooth="yes"/>
      <point x="614.0" y="412"/>
      <point x="519.0" y="497"/>
      <point x="381.0" y="497" type="curve" smooth="yes"/>
      <point x="323.0" y="497"/>
      <point x="278.0" y="481"/>
      <point x="248.0" y="446" type="curve"/>
      <point x="270.0" y="540"/>
      <point x="323.0" y="588"/>
      <point x="401.0" y="588" type="curve" smooth="yes"/>
      <point x="458.0" y="588"/>
      <point x="521.0" y="574"/>
      <point x="575.0" y="549" type="curve"/>
      <point x="575.0" y="721" type="line"/>
      <point x="513.0" y="743"/>
      <point x="443.0" y="754"/>
      <point x="381.0" y="754" type="curve" smooth="yes"/>
      <point x="180.0" y="754"/>
      <point x="44.0" y="591"/>
      <point x="44.0" y="350" type="curve" smooth="yes"/>
      <point x="44.0" y="113"/>
      <point x="156.0" y="-14"/>
    </contour>
    <contour>
      <point x="332.0" y="156" type="curve" smooth="yes"/>
      <point x="279.0" y="156"/>
      <point x="245.0" y="195"/>
      <point x="244.0" y="269" type="curve" smooth="yes"/>
      <point x="258.0" y="314"/>
      <point x="286.0" y="344"/>
      <point x="336.0" y="344" type="curve" smooth="yes"/>
      <point x="387.0" y="344"/>
      <point x="420.0" y="307"/>
      <point x="420.0" y="250" type="curve" smooth="yes"/>
      <point x="420.0" y="193"/>
      <point x="385.0" y="156"/>
    </contour>
  </outline>
</glyph>
<glyph name="question" format="2">
  <advance height="1000" width="533"/>
  <unicode hex="003F"/>
  <outline>
    <contour>
      <point x="155.0" y="238" type="curve"/>
      <point x="335.0" y="238" type="line"/>
      <point x="335.0" y="294"/>
      <point x="365.0" y="342"/>
      <point x="415.0" y="385" type="curve" smooth="yes"/>
      <point x="474.0" y="436"/>
      <point x="501.0" y="490"/>
      <point x="501.0" y="569" type="curve" smooth="yes"/>
      <point x="501.0" y="685"/>
      <point x="398.0" y="756"/>
      <point x="251.0" y="756" type="curve" smooth="yes"/>
      <point x="169.0" y="756"/>
      <point x="105.0" y="746"/>
      <point x="32.0" y="722" type="curve"/>
      <point x="32.0" y="562" type="line"/>
      <point x="86.0" y="586"/>
      <point x="134.0" y="598"/>
      <point x="194.0" y="598" type="curve" smooth="yes"/>
      <point x="259.0" y="598"/>
      <point x="299.0" y="571"/>
      <point x="299.0" y="528" type="curve" smooth="yes"/>
      <point x="299.0" y="496"/>
      <point x="284.0" y="466"/>
      <point x="244.0" y="432" type="curve" smooth="yes"/>
      <point x="193.0" y="388"/>
      <point x="155.0" y="330"/>
    </contour>
    <contour>
      <point x="153" y="0" type="line"/>
      <point x="337" y="0" type="line"/>
      <point x="337" y="164" type="line"/>
      <point x="153" y="164" type="line"/>
    </contour>
  </outline>
</glyph>
<glyph name="at" format="2">
  <advance height="1000" width="943"/>
  <unicode hex="0040"/>
  <outline>
    <contour>
      <point x="463" y="-79" type="curve" smooth="yes"/>
      <point x="534" y="-79"/>
      <point x="602" y="-65"/>
      <point x="671" y="-38" type="curve"/>
      <point x="671" y="87" type="line"/>
      <point x="607" y="53"/>
      <point x="537" y="35"/>
      <point x="463" y="35" type="curve" smooth="yes"/>
      <point x="282" y="35"/>
      <point x="161" y="168"/>
      <point x="161" y="337" type="curve" smooth="yes"/>
      <point x="161" y="502"/>
      <point x="286" y="644"/>
      <point x="474" y="644" type="curve" smooth="yes"/>
      <point x="659" y="644"/>
      <point x="781" y="524"/>
      <point x="781" y="381" type="curve" smooth="yes"/>
      <point x="781" y="289"/>
      <point x="750" y="242"/>
      <point x="694" y="242" type="curve" smooth="yes"/>
      <point x="647" y="242"/>
      <point x="622" y="284"/>
      <point x="630" y="340" type="curve" smooth="yes"/>
      <point x="650" y="509" type="line"/>
      <point x="607" y="527"/>
      <point x="542" y="541"/>
      <point x="494" y="541" type="curve" smooth="yes"/>
      <point x="371" y="541"/>
      <point x="263" y="449"/>
      <point x="263" y="304" type="curve" smooth="yes"/>
      <point x="263" y="207"/>
      <point x="324" y="137"/>
      <point x="408" y="137" type="curve" smooth="yes"/>
      <point x="470" y="137"/>
      <point x="517" y="164"/>
      <point x="546" y="221" type="curve"/>
      <point x="581" y="162"/>
      <point x="630" y="137"/>
      <point x="694" y="137" type="curve" smooth="yes"/>
      <point x="806" y="137"/>
      <point x="899" y="228"/>
      <point x="899" y="386" type="curve" smooth="yes"/>
      <point x="899" y="610"/>
      <point x="705" y="756"/>
      <point x="474" y="756" type="curve" smooth="yes"/>
      <point x="241" y="756"/>
      <point x="44.0" y="588"/>
      <point x="44.0" y="335" type="curve" smooth="yes"/>
      <point x="44.0" y="81"/>
      <point x="236" y="-79"/>
    </contour>
    <contour>
      <point x="443" y="258" type="curve" smooth="yes"/>
      <point x="411" y="258"/>
      <point x="391" y="281"/>
      <point x="391" y="321" type="curve" smooth="yes"/>
      <point x="391" y="379"/>
      <point x="431" y="426"/>
      <point x="475" y="426" type="curve" smooth="yes"/>
      <point x="491" y="426"/>
      <point x="506" y="423"/>
      <point x="523" y="419" type="curve"/>
      <point x="516" y="371" type="line" smooth="yes"/>
      <point x="503" y="277"/>
      <point x="472" y="258"/>
    </contour>
  </outline>
</glyph>
<glyph name="C" format="2">
  <advance height="1000" width="726"/>
  <unicode hex="0043"/>
  <outline>
    <contour>
      <point x="454.0" y="-16.0" type="curve" smooth="yes"/>
      <point x="535.0" y="-16.0"/>
      <point x="607.0" y="0.0"/>
      <point x="678.0" y="38.0" type="curve"/>
      <point x="678.0" y="227.0" type="line"/>
      <point x="609.0" y="184.0"/>
      <point x="540.0" y="162.0"/>
      <point x="461.0" y="162.0" type="curve" smooth="yes"/>
      <point x="333.0" y="162.0"/>
      <point x="248.0" y="243.0"/>
      <point x="248.0" y="371.0" type="curve" smooth="yes"/>
      <point x="248.0" y="498.0"/>
      <point x="333.0" y="578.0"/>
      <point x="461.0" y="578.0" type="curve" smooth="yes"/>
      <point x="535.0" y="578.0"/>
      <point x="603.0" y="559.0"/>
      <point x="670.0" y="518.0" type="curve"/>
      <point x="670.0" y="707.0" type="line"/>
      <point x="602.0" y="740.0"/>
      <point x="532.0" y="756.0"/>
      <point x="454.0" y="756.0" type="curve" smooth="yes"/>
      <point x="204.0" y="756.0"/>
      <point x="44.0" y="607.0"/>
      <point x="44.0" y="371.0" type="curve" smooth="yes"/>
      <point x="44.0" y="135.0"/>
      <point x="204.0" y="-16.0"/>
    </contour>
  </outline>
</glyph>
<glyph name="D" format="2">
  <advance height="1000" width="786"/>
  <unicode hex="0044"/>
  <outline>
    <contour>
      <point x="64" y="0" type="line"/>
      <point x="331" y="0" type="line" smooth="yes"/>
      <point x="586" y="0"/>
      <point x="742" y="147"/>
      <point x="742" y="379" type="curve" smooth="yes"/>
      <point x="742" y="601"/>
      <point x="584" y="740"/>
      <point x="336" y="740" type="curve" smooth="yes"/>
      <point x="64" y="740" type="line"/>
    </contour>
    <contour>
      <point x="264" y="178" type="line"/>
      <point x="264" y="562" type="line"/>
      <point x="336" y="562" type="line" smooth="yes"/>
      <point x="462.0" y="562.0"/>
      <point x="538" y="490"/>
      <point x="538" y="379" type="curve" smooth="yes"/>
      <point x="538" y="256"/>
      <point x="460.0" y="178.0"/>
      <point x="332" y="178" type="curve" smooth="yes"/>
    </contour>
  </outline>
</glyph>
<glyph name="H" format="2">
  <advance height="1000" width="792"/>
  <unicode hex="0048"/>
  <outline>
    <contour>
      <point x="64" y="0" type="line"/>
      <point x="264" y="0" type="line"/>
      <point x="264" y="282" type="line"/>
      <point x="528" y="282" type="line"/>
      <point x="528" y="0" type="line"/>
      <point x="728" y="0" type="line"/>
      <point x="728" y="740" type="line"/>
      <point x="528" y="740" type="line"/>
      <point x="528" y="462" type="line"/>
      <point x="264" y="462" type="line"/>
      <point x="264" y="740" type="line"/>
      <point x="64" y="740" type="line"/>
    </contour>
  </outline>
</glyph>
<glyph name="J" format="2">
  <advance height="1000" width="448"/>
  <unicode hex="004A"/>
  <outline>
    <contour>
      <point x="130.0" y="-12.0" type="curve" smooth="yes"/>
      <point x="285.0" y="-12.0"/>
      <point x="388.0" y="85.0"/>
      <point x="388.0" y="259.0" type="curve" smooth="yes"/>
      <point x="388.0" y="740.0" type="line"/>
      <point x="188.0" y="740.0" type="line"/>
      <point x="188.0" y="258.0" type="line" smooth="yes"/>
      <point x="188.0" y="200.0"/>
      <point x="157.0" y="162.0"/>
      <point x="96.0" y="162.0" type="curve" smooth="yes"/>
      <point x="73.0" y="162.0"/>
      <point x="47.0" y="166.0"/>
      <point x="32.0" y="171.0" type="curve"/>
      <point x="32.0" y="0.0" type="line"/>
      <point x="59.0" y="-7.0"/>
      <point x="98.0" y="-12.0"/>
    </contour>
  </outline>
</glyph>
<glyph name="K" format="2">
  <advance height="1000" width="774"/>
  <unicode hex="004B"/>
  <outline>
    <contour>
      <point x="64" y="0" type="line"/>
      <point x="264" y="0" type="line"/>
      <point x="264" y="332" type="line"/>
      <point x="507" y="0" type="line"/>
      <point x="758" y="0" type="line"/>
      <point x="464" y="387" type="line"/>
      <point x="744" y="740" type="line"/>
      <point x="513" y="740" type="line"/>
      <point x="264" y="412" type="line"/>
      <point x="264" y="740" type="line"/>
      <point x="64" y="740" type="line"/>
    </contour>
  </outline>
</glyph>
<glyph name="R" format="2">
  <advance height="1000" width="688"/>
  <unicode hex="0052"/>
  <outline>
    <contour>
      <point x="64" y="0" type="line"/>
      <point x="264" y="0" type="line"/>
      <point x="264" y="286" type="line"/>
      <point x="298" y="286" type="line" smooth="yes"/>
      <point x="339.0" y="286.0"/>
      <point x="365" y="262"/>
      <point x="384" y="209" type="curve" smooth="yes"/>
      <point x="459" y="0" type="line"/>
      <point x="672" y="0" type="line"/>
      <point x="586" y="232" type="line" smooth="yes"/>
      <point x="560" y="298"/>
      <point x="517" y="337"/>
      <point x="449" y="353" type="curve"/>
      <point x="545" y="382"/>
      <point x="595" y="449"/>
      <point x="595" y="541" type="curve" smooth="yes"/>
      <point x="595" y="664"/>
      <point x="495" y="740"/>
      <point x="353" y="740" type="curve" smooth="yes"/>
      <point x="64" y="740" type="line"/>
    </contour>
    <contour>
      <point x="264" y="426" type="line"/>
      <point x="264" y="586" type="line"/>
      <point x="314" y="586" type="line" smooth="yes"/>
      <point x="362.0" y="586.0"/>
      <point x="395" y="554"/>
      <point x="395" y="507" type="curve" smooth="yes"/>
      <point x="395" y="459"/>
      <point x="362.0" y="426.0"/>
      <point x="314" y="426" type="curve" smooth="yes"/>
    </contour>
  </outline>
</glyph>
<glyph name="S" format="2">
  <advance height="1000" width="606"/>
  <unicode hex="0053"/>
  <outline>
    <contour>
      <point x="281.0" y="-16.0" type="curve" smooth="yes"/>
      <point x="456.0" y="-16.0"/>
      <point x="566.0" y="75.0"/>
      <point x="566.0" y="231.0" type="curve" smooth="yes"/>
      <point x="566.0" y="341.0"/>
      <point x="517.0" y="418.0"/>
      <point x="365.0" y="458.0" type="curve" smooth="yes"/>
      <point x="335.0" y="466.0" type="line" smooth="yes"/>
      <point x="278.0" y="481.0"/>
      <point x="254.0" y="503.0"/>
      <point x="254.0" y="534.0" type="curve" smooth="yes"/>
      <point x="254.0" y="566.0"/>
      <point x="282.0" y="584.0"/>
      <point x="333.0" y="584.0" type="curve" smooth="yes"/>
      <point x="399.0" y="584.0"/>
      <point x="470.0" y="566.0"/>
      <point x="532.0" y="533.0" type="curve"/>
      <point x="532.0" y="715.0" type="line"/>
      <point x="463.0" y="744.0"/>
      <point x="387.0" y="756.0"/>
      <point x="315.0" y="756.0" type="curve" smooth="yes"/>
      <point x="146.0" y="756.0"/>
      <point x="40.0" y="663.0"/>
      <point x="40.0" y="522.0" type="curve" smooth="yes"/>
      <point x="40.0" y="411.0"/>
      <point x="103.0" y="331.0"/>
      <point x="234.0" y="296.0" type="curve" smooth="yes"/>
      <point x="266.0" y="289.0" type="line" smooth="yes"/>
      <point x="331.0" y="275.0"/>
      <point x="352.0" y="249.0"/>
      <point x="352.0" y="215.0" type="curve" smooth="yes"/>
      <point x="352.0" y="179.0"/>
      <point x="327.0" y="157.0"/>
      <point x="270.0" y="157.0" type="curve" smooth="yes"/>
      <point x="196.0" y="157.0"/>
      <point x="119.0" y="176.0"/>
      <point x="49.0" y="215.0" type="curve"/>
      <point x="49.0" y="31.0" type="line"/>
      <point x="125.0" y="0.0"/>
      <point x="206.0" y="-16.0"/>
    </contour>
  </outline>
</glyph>
<glyph name="W" format="2">
  <advance height="1000" width="1122"/>
  <unicode hex="0057"/>
  <outline>
    <contour>
      <point x="205.0" y="0.0" type="line"/>
      <point x="443.0" y="0.0" type="line"/>
      <point x="559.0" y="475.0" type="line"/>
      <point x="675.0" y="0.0" type="line"/>
      <point x="917.0" y="0.0" type="line"/>
      <point x="1110.0" y="740.0" type="line"/>
      <point x="920.0" y="740.0" type="line"/>
      <point x="800.0" y="233.0" type="line"/>
      <point x="680.0" y="740.0" type="line"/>
      <point x="461.0" y="740.0" type="line"/>
      <point x="341.0" y="233.0" type="line"/>
      <point x="221.0" y="740.0" type="line"/>
      <point x="12.0" y="740.0" type="line"/>
    </contour>
  </outline>
</glyph>
<glyph name="Z" format="2">
  <advance height="1000" width="702"/>
  <unicode hex="005A"/>
  <outline>
    <contour>
      <point x="48" y="0" type="line"/>
      <point x="654" y="0" type="line"/>
      <point x="654" y="180" type="line"/>
      <point x="335" y="180" type="line"/>
      <point x="654" y="629" type="line"/>
      <point x="654" y="740" type="line"/>
      <point x="57" y="740" type="line"/>
      <point x="57" y="560" type="line"/>
      <point x="367" y="560" type="line"/>
      <point x="48" y="111" type="line"/>
    </contour>
  </outline>
</glyph>
<glyph name="c" format="2">
  <advance height="1000" width="525"/>
  <unicode hex="0063"/>
  <outline>
    <contour>
      <point x="317.0" y="-12.0" type="curve" smooth="yes"/>
      <point x="378.0" y="-12.0"/>
      <point x="435.0" y="4.0"/>
      <point x="485.0" y="29.0" type="curve"/>
      <point x="485.0" y="205.0" type="line"/>
      <point x="444.0" y="177.0"/>
      <point x="397.0" y="159.0"/>
      <point x="352.0" y="159.0" type="curve" smooth="yes"/>
      <point x="281.0" y="159.0"/>
      <point x="236.0" y="197.0"/>
      <point x="236.0" y="270.0" type="curve" smooth="yes"/>
      <point x="236.0" y="341.0"/>
      <point x="279.0" y="377.0"/>
      <point x="348.0" y="377.0" type="curve" smooth="yes"/>
      <point x="393.0" y="377.0"/>
      <point x="438.0" y="361.0"/>
      <point x="480.0" y="338.0" type="curve"/>
      <point x="480.0" y="514.0" type="line"/>
      <point x="432.0" y="536.0"/>
      <point x="377.0" y="548.0"/>
      <point x="317.0" y="548.0" type="curve" smooth="yes"/>
      <point x="147.0" y="548.0"/>
      <point x="36.0" y="442.0"/>
      <point x="36.0" y="264.0" type="curve" smooth="yes"/>
      <point x="36.0" y="92.0"/>
      <point x="148.0" y="-12.0"/>
    </contour>
  </outline>
</glyph>
<glyph name="n" format="2">
  <advance height="1000" width="602"/>
  <unicode hex="006E"/>
  <outline>
    <contour>
      <point x="48.0" y="0.0" type="line"/>
      <point x="238.0" y="0.0" type="line"/>
      <point x="238.0" y="345.0" type="line"/>
      <point x="256.0" y="371.0"/>
      <point x="280.0" y="383.0"/>
      <point x="308.0" y="383.0" type="curve" smooth="yes"/>
      <point x="345.0" y="383.0"/>
      <point x="368.0" y="361.0"/>
      <point x="368.0" y="317.0" type="curve" smooth="yes"/>
      <point x="368.0" y="0.0" type="line"/>
      <point x="558.0" y="0.0" type="line"/>
      <point x="558.0" y="360.0" type="line" smooth="yes"/>
      <point x="558.0" y="479.0"/>
      <point x="490.0" y="548.0"/>
      <point x="390.0" y="548.0" type="curve" smooth="yes"/>
      <point x="323.0" y="548.0"/>
      <point x="272.0" y="517.0"/>
      <point x="238.0" y="466.0" type="curve"/>
      <point x="238.0" y="536.0" type="line"/>
      <point x="48.0" y="536.0" type="line"/>
    </contour>
  </outline>
</glyph>
<glyph name="o" format="2">
  <advance height="1000" width="626"/>
  <unicode hex="006F"/>
  <outline>
    <contour>
      <point x="312.0" y="-12.0" type="curve" smooth="yes"/>
      <point x="479.0" y="-12.0"/>
      <point x="590.0" y="100.0"/>
      <point x="590.0" y="270.0" type="curve" smooth="yes"/>
      <point x="590.0" y="438.0"/>
      <point x="479.0" y="548.0"/>
      <point x="312.0" y="548.0" type="curve" smooth="yes"/>
      <point x="146.0" y="548.0"/>
      <point x="36.0" y="437.0"/>
      <point x="36.0" y="267.0" type="curve" smooth="yes"/>
      <point x="36.0" y="98.0"/>
      <point x="146.0" y="-12.0"/>
    </contour>
    <contour>
      <point x="312.0" y="152.0" type="curve" smooth="yes"/>
      <point x="256.0" y="152.0"/>
      <point x="227.0" y="199.0"/>
      <point x="227.0" y="269.0" type="curve" smooth="yes"/>
      <point x="227.0" y="339.0"/>
      <point x="256.0" y="385.0"/>
      <point x="312.0" y="385.0" type="curve" smooth="yes"/>
      <point x="369.0" y="385.0"/>
      <point x="398.0" y="339.0"/>
      <point x="398.0" y="269.0" type="curve" smooth="yes"/>
      <point x="398.0" y="199.0"/>
      <point x="369.0" y="152.0"/>
    </contour>
  </outline>
</glyph>
<glyph name="r" format="2">
  <advance height="1000" width="430"/>
  <unicode hex="0072"/>
  <outline>
    <contour>
      <point x="48.0" y="0.0" type="line"/>
      <point x="238.0" y="0.0" type="line"/>
      <point x="238.0" y="342.0" type="line"/>
      <point x="261.0" y="358.0"/>
      <point x="294.0" y="370.0"/>
      <point x="326.0" y="370.0" type="curve" smooth="yes"/>
      <point x="357.0" y="370.0"/>
      <point x="382.0" y="364.0"/>
      <point x="410.0" y="352.0" type="curve"/>
      <point x="410.0" y="541.0" type="line"/>
      <point x="393.0" y="546.0"/>
      <point x="377.0" y="548.0"/>
      <point x="359.0" y="548.0" type="curve" smooth="yes"/>
      <point x="311.0" y="548.0"/>
      <point x="268.0" y="522.0"/>
      <point x="238.0" y="455.0" type="curve"/>
      <point x="238.0" y="536.0" type="line"/>
      <point x="48.0" y="536.0" type="line"/>
    </contour>
  </outline>
</glyph>
<glyph name="u" format="2">
  <advance height="1000" width="602"/>
  <unicode hex="0075"/>
  <outline>
    <contour>
      <point x="218.0" y="-12.0" type="curve" smooth="yes"/>
      <point x="278.0" y="-12.0"/>
      <point x="331.0" y="18.0"/>
      <point x="364.0" y="70.0" type="curve"/>
      <point x="374.0" y="0.0" type="line"/>
      <point x="554.0" y="0.0" type="line"/>
      <point x="554.0" y="536.0" type="line"/>
      <point x="364.0" y="536.0" type="line"/>
      <point x="364.0" y="192.0" type="line"/>
      <point x="348.0" y="168.0"/>
      <point x="324.0" y="154.0"/>
      <point x="296.0" y="154.0" type="curve" smooth="yes"/>
      <point x="260.0" y="154.0"/>
      <point x="234.0" y="180.0"/>
      <point x="234.0" y="223.0" type="curve" smooth="yes"/>
      <point x="234.0" y="536.0" type="line"/>
      <point x="44.0" y="536.0" type="line"/>
      <point x="44.0" y="179.0" type="line" smooth="yes"/>
      <point x="44.0" y="61.0"/>
      <point x="113.0" y="-12.0"/>
    </contour>
  </outline>
</glyph>
<glyph name="v" format="2">
  <advance height="1000" width="597"/>
  <unicode hex="0076"/>
  <outline>
    <contour>
      <point x="182.0" y="0.0" type="line"/>
      <point x="415.0" y="0.0" type="line"/>
      <point x="589.0" y="536.0" type="line"/>
      <point x="407.0" y="536.0" type="line"/>
      <point x="309.0" y="179.0" type="line"/>
      <point x="213.0" y="536.0" type="line"/>
      <point x="8.0" y="536.0" type="line"/>
    </contour>
  </outline>
</glyph>
<glyph name="y" format="2">
  <advance height="1000" width="596"/>
  <unicode hex="0079"/>
  <outline>
    <contour>
      <point x="32.0" y="-189.0" type="line" smooth="yes"/>
      <point x="249.0" y="-189.0"/>
      <point x="358.0" y="-122.0"/>
      <point x="434.0" y="96.0" type="curve" smooth="yes"/>
      <point x="588.0" y="536.0" type="line"/>
      <point x="405.0" y="536.0" type="line"/>
      <point x="309.0" y="201.0" type="line"/>
      <point x="213.0" y="536.0" type="line"/>
      <point x="8.0" y="536.0" type="line"/>
      <point x="183.0" y="49.0" type="line"/>
      <point x="212.0" y="34.0" type="line"/>
      <point x="179.0" y="-15.0"/>
      <point x="133.0" y="-29.0"/>
      <point x="32.0" y="-29.0" type="curve" smooth="yes"/>
      <point x="23.0" y="-29.0" type="line"/>
      <point x="23.0" y="-189.0" type="line"/>
    </contour>
  </outline>
</glyph>
<glyph name="braceright" format="2">
  <advance height="1000" width="531"/>
  <unicode hex="007D"/>
  <outline>
    <contour>
      <point x="48" y="-189" type="line"/>
      <point x="89" y="-189" type="line" smooth="yes"/>
      <point x="268" y="-189"/>
      <point x="360" y="-120"/>
      <point x="351" y="-1" type="curve" smooth="yes"/>
      <point x="345" y="79" type="line"/>
      <point x="339" y="157"/>
      <point x="390" y="189"/>
      <point x="483" y="201" type="curve"/>
      <point x="483" y="351" type="line"/>
      <point x="390" y="362"/>
      <point x="339" y="395"/>
      <point x="345" y="473" type="curve" smooth="yes"/>
      <point x="351" y="553" type="line" smooth="yes"/>
      <point x="360" y="671"/>
      <point x="268" y="740"/>
      <point x="89" y="740" type="curve" smooth="yes"/>
      <point x="48" y="740" type="line"/>
      <point x="48" y="590" type="line"/>
      <point x="66" y="590" type="line" smooth="yes"/>
      <point x="135" y="590"/>
      <point x="171" y="562"/>
      <point x="166" y="503" type="curve" smooth="yes"/>
      <point x="160" y="429" type="line" smooth="yes"/>
      <point x="154" y="355"/>
      <point x="208" y="299"/>
      <point x="297" y="275" type="curve"/>
      <point x="207" y="254"/>
      <point x="154" y="199"/>
      <point x="160" y="122" type="curve" smooth="yes"/>
      <point x="166" y="48" type="line" smooth="yes"/>
      <point x="171" y="-11"/>
      <point x="134" y="-39"/>
      <point x="66" y="-39" type="curve" smooth="yes"/>
      <point x="48" y="-39" type="line"/>
    </contour>
  </outline>
</glyph>
<glyph name="oacute" format="2">
  <advance height="1000" width="626"/>
  <unicode hex="00F3"/>
  <outline>
    <contour>
      <point x="312.0" y="-12.0" type="curve" smooth="yes"/>
      <point x="479.0" y="-12.0"/>
      <point x="590.0" y="100.0"/>
      <point x="590.0" y="270.0" type="curve" smooth="yes"/>
      <point x="590.0" y="438.0"/>
      <point x="479.0" y="548.0"/>
      <point x="312.0" y="548.0" type="curve" smooth="yes"/>
      <point x="146.0" y="548.0"/>
      <point x="36.0" y="437.0"/>
      <point x="36.0" y="267.0" type="curve" smooth="yes"/>
      <point x="36.0" y="98.0"/>
      <point x="146.0" y="-12.0"/>
    </contour>
    <contour>
      <point x="312.0" y="152.0" type="curve" smooth="yes"/>
      <point x="256.0" y="152.0"/>
      <point x="227.0" y="199.0"/>
      <point x="227.0" y="269.0" type="curve" smooth="yes"/>
      <point x="227.0" y="339.0"/>
      <point x="256.0" y="385.0"/>
      <point x="312.0" y="385.0" type="curve" smooth="yes"/>
      <point x="369.0" y="385.0"/>
      <point x="398.0" y="339.0"/>
      <point x="398.0" y="269.0" type="curve" smooth="yes"/>
      <point x="398.0" y="199.0"/>
      <point x="369.0" y="152.0"/>
    </contour>
    <contour>
      <point x="376" y="592" type="line"/>
      <point x="498" y="748" type="line"/>
      <point x="332" y="748" type="line"/>
      <point x="231" y="592" type="line"/>
    </contour>
  </outline>
</glyph>
<glyph name="Alphatonos" format="2">
  <advance height="1000" width="817"/>
  <unicode hex="0386"/>
  <outline>
    <contour>
      <point x="584" y="0" type="line"/>
      <point x="801" y="0" type="line"/>
      <point x="507" y="740" type="line"/>
      <point x="312" y="740" type="line"/>
      <point x="16" y="0" type="line"/>
      <point x="210" y="0" type="line"/>
      <point x="397" y="513" type="line"/>
    </contour>
    <contour>
      <point x="166" y="131" type="line"/>
      <point x="626" y="131" type="line"/>
      <point x="626" y="289" type="line"/>
      <point x="166" y="289" type="line"/>
    </contour>
    <contour>
      <point x="32" y="532" type="line"/>
      <point x="176" y="532" type="line"/>
      <point x="231" y="740" type="line"/>
      <point x="79" y="740" type="line"/>
    </contour>
  </outline>
</glyph>
<glyph name="Epsilontonos" format="2">
  <advance height="1000" width="782"/>
  <unicode hex="0388"/>
  <outline>
    <contour>
      <point x="241" y="0" type="line"/>
      <point x="718" y="0" type="line"/>
      <point x="718" y="178" type="line"/>
      <point x="441" y="178" type="line"/>
      <point x="441" y="294" type="line"/>
      <point x="693" y="294" type="line"/>
      <point x="693" y="452" type="line"/>
      <point x="441" y="452" type="line"/>
      <point x="441" y="562" type="line"/>
      <point x="708" y="562" type="line"/>
      <point x="708" y="740" type="line"/>
      <point x="241" y="740" type="line"/>
    </contour>
    <contour>
      <point x="0" y="531" type="line"/>
      <point x="144" y="531" type="line"/>
      <point x="199" y="739" type="line"/>
      <point x="47" y="739" type="line"/>
    </contour>
  </outline>
</glyph>
<glyph name="Upsilontonos" format="2">
  <advance height="1000" width="970"/>
  <unicode hex="038E"/>
  <outline>
    <contour>
      <point x="493" y="0" type="line"/>
      <point x="693" y="0" type="line"/>
      <point x="693" y="267" type="line"/>
      <point x="958" y="740" type="line"/>
      <point x="750" y="740" type="line"/>
      <point x="601" y="446" type="line"/>
      <point x="452" y="740" type="line"/>
      <point x="223" y="740" type="line"/>
      <point x="493" y="264" type="line"/>
    </contour>
    <contour>
      <point x="0" y="532" type="line"/>
      <point x="144" y="532" type="line"/>
      <point x="199" y="740" type="line"/>
      <point x="47" y="740" type="line"/>
    </contour>
  </outline>
</glyph>
<glyph name="Omegatonos" format="2">
  <advance height="1000" width="912"/>
  <unicode hex="038F"/>
  <outline>
    <contour>
      <point x="189" y="0" type="line"/>
      <point x="489" y="0" type="line"/>
      <point x="489" y="290" type="line"/>
      <point x="422" y="300"/>
      <point x="377" y="352"/>
      <point x="377" y="439" type="curve" smooth="yes"/>
      <point x="377" y="524"/>
      <point x="435" y="580"/>
      <point x="522" y="580" type="curve" smooth="yes"/>
      <point x="610" y="580"/>
      <point x="667" y="522"/>
      <point x="667" y="436" type="curve" smooth="yes"/>
      <point x="667" y="350"/>
      <point x="620" y="297"/>
      <point x="555" y="290" type="curve"/>
      <point x="555" y="0" type="line"/>
      <point x="855" y="0" type="line"/>
      <point x="855" y="170" type="line"/>
      <point x="685" y="170" type="line"/>
      <point x="685" y="193" type="line"/>
      <point x="800" y="229"/>
      <point x="872" y="323"/>
      <point x="872" y="457" type="curve" smooth="yes"/>
      <point x="872" y="632"/>
      <point x="735" y="756"/>
      <point x="522" y="756" type="curve" smooth="yes"/>
      <point x="310" y="756"/>
      <point x="174" y="631"/>
      <point x="174" y="452" type="curve" smooth="yes"/>
      <point x="174" y="325"/>
      <point x="246" y="232"/>
      <point x="359" y="196" type="curve"/>
      <point x="359" y="170" type="line"/>
      <point x="189" y="170" type="line"/>
    </contour>
    <contour>
      <point x="0" y="532" type="line"/>
      <point x="144" y="532" type="line"/>
      <point x="199" y="740" type="line"/>
      <point x="47" y="740" type="line"/>
    </contour>
  </outline>
</glyph>
<glyph name="iotadieresistonos" format="2">
  <advance height="1000" width="386"/>
  <unicode hex="0390"/>
  <outline>
    <contour>
      <point x="231.0" y="-10.0" type="curve" smooth="yes"/>
      <point x="267.0" y="-10.0"/>
      <point x="313.0" y="-2.0"/>
      <point x="346.0" y="10.0" type="curve"/>
      <point x="346.0" y="160.0" type="line"/>
      <point x="340.0" y="156.0"/>
      <point x="330.0" y="153.0"/>
      <point x="318.0" y="153.0" type="curve" smooth="yes"/>
      <point x="298.0" y="153.0"/>
      <point x="287.0" y="167.0"/>
      <point x="287.0" y="190.0" type="curve" smooth="yes"/>
      <point x="287.0" y="536.0" type="line"/>
      <point x="97.0" y="536.0" type="line"/>
      <point x="97.0" y="140.0" type="line" smooth="yes"/>
      <point x="97.0" y="41.0"/>
      <point x="143.0" y="-10.0"/>
    </contour>
    <contour>
      <point x="6" y="592" type="line"/>
      <point x="90" y="592" type="line"/>
      <point x="90" y="676" type="line"/>
      <point x="6" y="676" type="line"/>
    </contour>
    <contour>
      <point x="125" y="592" type="line"/>
      <point x="253" y="592" type="line"/>
      <point x="308" y="795" type="line"/>
      <point x="172" y="795" type="line"/>
    </contour>
    <contour>
      <point x="309" y="592" type="line"/>
      <point x="393" y="592" type="line"/>
      <point x="393" y="676" type="line"/>
      <point x="309" y="676" type="line"/>
    </contour>
  </outline>
</glyph>
<glyph name="Delta" format="2">
  <advance height="1000" width="792"/>
  <unicode hex="0394"/>
  <unicode hex="2206"/>
  <outline>
    <contour>
      <point x="16.0" y="0.0" type="line"/>
      <point x="776.0" y="0.0" type="line" smooth="yes"/>
      <point x="502.0" y="740.0" type="line" smooth="yes"/>
      <point x="290.0" y="740.0" type="line"/>
    </contour>
    <contour>
      <point x="251.0" y="161.0" type="line"/>
      <point x="382.0" y="522.0" type="line"/>
      <point x="512.0" y="161.0" type="line"/>
    </contour>
  </outline>
</glyph>
<glyph name="Zeta" format="2">
  <advance height="1000" width="702"/>
  <unicode hex="0396"/>
  <outline>
    <contour>
      <point x="48" y="0" type="line"/>
      <point x="654" y="0" type="line"/>
      <point x="654" y="180" type="line"/>
      <point x="335" y="180" type="line"/>
      <point x="654" y="629" type="line"/>
      <point x="654" y="740" type="line"/>
      <point x="57" y="740" type="line"/>
      <point x="57" y="560" type="line"/>
      <point x="367" y="560" type="line"/>
      <point x="48" y="111" type="line"/>
    </contour>
  </outline>
</glyph>
<glyph name="Eta" format="2">
  <advance height="1000" width="792"/>
  <unicode hex="0397"/>
  <outline>
    <contour>
      <point x="64" y="0" type="line"/>
      <point x="264" y="0" type="line"/>
      <point x="264" y="282" type="line"/>
      <point x="528" y="282" type="line"/>
      <point x="528" y="0" type="line"/>
      <point x="728" y="0" type="line"/>
      <point x="728" y="740" type="line"/>
      <point x="528" y="740" type="line"/>
      <point x="528" y="462" type="line"/>
      <point x="264" y="462" type="line"/>
      <point x="264" y="740" type="line"/>
      <point x="64" y="740" type="line"/>
    </contour>
  </outline>
</glyph>
<glyph name="Theta" format="2">
  <advance height="1000" width="882"/>
  <unicode hex="0398"/>
  <outline>
    <contour>
      <point x="319.0" y="292.0" type="line"/>
      <point x="571.0" y="292.0" type="line"/>
      <point x="571.0" y="442.0" type="line"/>
      <point x="319.0" y="442.0" type="line"/>
    </contour>
    <contour>
      <point x="441.0" y="-16.0" type="curve" smooth="yes"/>
      <point x="684.0" y="-16.0"/>
      <point x="838.0" y="133.0"/>
      <point x="838.0" y="371.0" type="curve" smooth="yes"/>
      <point x="838.0" y="611.0"/>
      <point x="679.0" y="756.0"/>
      <point x="441.0" y="756.0" type="curve" smooth="yes"/>
      <point x="203.0" y="756.0"/>
      <point x="44.0" y="606.0"/>
      <point x="44.0" y="371.0" type="curve" smooth="yes"/>
      <point x="44.0" y="137.0"/>
      <point x="198.0" y="-16.0"/>
    </contour>
    <contour>
      <point x="441.0" y="162.0" type="curve" smooth="yes"/>
      <point x="323.0" y="162.0"/>
      <point x="248.0" y="242.0"/>
      <point x="248.0" y="371.0" type="curve" smooth="yes"/>
      <point x="248.0" y="502.0"/>
      <point x="323.0" y="578.0"/>
      <point x="441.0" y="578.0" type="curve" smooth="yes"/>
      <point x="559.0" y="578.0"/>
      <point x="634.0" y="502.0"/>
      <point x="634.0" y="371.0" type="curve" smooth="yes"/>
      <point x="634.0" y="242.0"/>
      <point x="559.0" y="162.0"/>
    </contour>
  </outline>
</glyph>
<glyph name="Kappa" format="2">
  <advance height="1000" width="774"/>
  <unicode hex="039A"/>
  <outline>
    <contour>
      <point x="64" y="0" type="line"/>
      <point x="264" y="0" type="line"/>
      <point x="264" y="332" type="line"/>
      <point x="507" y="0" type="line"/>
      <point x="758" y="0" type="line"/>
      <point x="464" y="387" type="line"/>
      <point x="744" y="740" type="line"/>
      <point x="513" y="740" type="line"/>
      <point x="264" y="412" type="line"/>
      <point x="264" y="740" type="line"/>
      <point x="64" y="740" type="line"/>
    </contour>
  </outline>
</glyph>
<glyph name="Lambda" format="2">
  <advance height="1000" width="800"/>
  <unicode hex="039B"/>
  <outline>
    <contour>
      <point x="16.0" y="0.0" type="line"/>
      <point x="213.0" y="0.0" type="line"/>
      <point x="392.0" y="500.0" type="line"/>
      <point x="570.0" y="0.0" type="line"/>
      <point x="784.0" y="0.0" type="line"/>
      <point x="493.0" y="740.0" type="line"/>
      <point x="307.0" y="740.0" type="line"/>
    </contour>
  </outline>
</glyph>
<glyph name="Nu" format="2">
  <advance height="1000" width="825"/>
  <unicode hex="039D"/>
  <outline>
    <contour>
      <point x="64" y="0" type="line"/>
      <point x="244" y="0" type="line"/>
      <point x="244" y="464" type="line"/>
      <point x="515" y="0" type="line"/>
      <point x="761" y="0" type="line"/>
      <point x="761" y="740" type="line"/>
      <point x="581" y="740" type="line"/>
      <point x="581" y="276" type="line"/>
      <point x="310" y="740" type="line"/>
      <point x="64" y="740" type="line"/>
    </contour>
  </outline>
</glyph>
<glyph name="Pi" format="2">
  <advance height="1000" width="783"/>
  <unicode hex="03A0"/>
  <outline>
    <contour>
      <point x="64.0" y="0.0" type="line"/>
      <point x="264.0" y="0.0" type="line"/>
      <point x="264.0" y="570.0" type="line"/>
      <point x="519.0" y="570.0" type="line"/>
      <point x="519.0" y="0.0" type="line"/>
      <point x="719.0" y="0.0" type="line"/>
      <point x="719.0" y="740.0" type="line"/>
      <point x="64.0" y="740.0" type="line"/>
    </contour>
  </outline>
</glyph>
<glyph name="Sigma" format="2">
  <advance height="1000" width="647"/>
  <unicode hex="03A3"/>
  <outline>
    <contour>
      <point x="56.0" y="0.0" type="line"/>
      <point x="587.0" y="0.0" type="line"/>
      <point x="587.0" y="180.0" type="line"/>
      <point x="326.0" y="180.0" type="line"/>
      <point x="525.0" y="391.0" type="line"/>
      <point x="342.0" y="570.0" type="line"/>
      <point x="581.0" y="570.0" type="line"/>
      <point x="581.0" y="740.0" type="line"/>
      <point x="56.0" y="740.0" type="line"/>
      <point x="56.0" y="592.0" type="line"/>
      <point x="273.0" y="380.0" type="line"/>
      <point x="56.0" y="148.0" type="line"/>
    </contour>
  </outline>
</glyph>
<glyph name="Phi" format="2">
  <advance height="1000" width="920"/>
  <unicode hex="03A6"/>
  <outline>
    <contour>
      <point x="360.0" y="-32.0" type="line"/>
      <point x="560.0" y="-32.0" type="line"/>
      <point x="560.0" y="774.0" type="line"/>
      <point x="360.0" y="774.0" type="line"/>
    </contour>
    <contour>
      <point x="44.0" y="376.0" type="curve" smooth="yes"/>
      <point x="44.0" y="181.0"/>
      <point x="192.0" y="56.0"/>
      <point x="414.0" y="56.0" type="curve" smooth="yes"/>
      <point x="506.0" y="56.0" type="line" smooth="yes"/>
      <point x="728.0" y="56.0"/>
      <point x="876.0" y="181.0"/>
      <point x="876.0" y="376.0" type="curve" smooth="yes"/>
      <point x="876.0" y="571.0"/>
      <point x="728.0" y="696.0"/>
      <point x="506.0" y="696.0" type="curve" smooth="yes"/>
      <point x="414.0" y="696.0" type="line" smooth="yes"/>
      <point x="192.0" y="696.0"/>
      <point x="44.0" y="571.0"/>
    </contour>
    <contour>
      <point x="673.0" y="376.0" type="curve" smooth="yes"/>
      <point x="673.0" y="301.0"/>
      <point x="616.0" y="226.0"/>
      <point x="506.0" y="226.0" type="curve" smooth="yes"/>
      <point x="414.0" y="226.0" type="line" smooth="yes"/>
      <point x="304.0" y="226.0"/>
      <point x="247.0" y="301.0"/>
      <point x="247.0" y="376.0" type="curve" smooth="yes"/>
      <point x="247.0" y="452.0"/>
      <point x="304.0" y="526.0"/>
      <point x="414.0" y="526.0" type="curve" smooth="yes"/>
      <point x="506.0" y="526.0" type="line" smooth="yes"/>
      <point x="616.0" y="526.0"/>
      <point x="673.0" y="452.0"/>
    </contour>
  </outline>
</glyph>
<glyph name="Chi" format="2">
  <advance height="1000" width="792"/>
  <unicode hex="03A7"/>
  <outline>
    <contour>
      <point x="241.0" y="0.0" type="line"/>
      <point x="389.0" y="230.0" type="line"/>
      <point x="537.0" y="0.0" type="line"/>
      <point x="776.0" y="0.0" type="line"/>
      <point x="511.0" y="381.0" type="line"/>
      <point x="763.0" y="740.0" type="line"/>
      <point x="541.0" y="740.0" type="line"/>
      <point x="404.0" y="526.0" type="line"/>
      <point x="267.0" y="740.0" type="line"/>
      <point x="27.0" y="740.0" type="line"/>
      <point x="279.0" y="376.0" type="line"/>
      <point x="16.0" y="0.0" type="line"/>
    </contour>
  </outline>
</glyph>
<glyph name="iotatonos" format="2">
  <advance height="1000" width="325"/>
  <unicode hex="03AF"/>
  <outline>
    <contour>
      <point x="217.0" y="-10.0" type="curve" smooth="yes"/>
      <point x="253.0" y="-10.0"/>
      <point x="299.0" y="-2.0"/>
      <point x="332.0" y="10.0" type="curve"/>
      <point x="332.0" y="160.0" type="line"/>
      <point x="326.0" y="156.0"/>
      <point x="316.0" y="153.0"/>
      <point x="304.0" y="153.0" type="curve" smooth="yes"/>
      <point x="284.0" y="153.0"/>
      <point x="273.0" y="167.0"/>
      <point x="273.0" y="190.0" type="curve" smooth="yes"/>
      <point x="273.0" y="536.0" type="line"/>
      <point x="83.0" y="536.0" type="line"/>
      <point x="83.0" y="140.0" type="line" smooth="yes"/>
      <point x="83.0" y="41.0"/>
      <point x="129.0" y="-10.0"/>
    </contour>
    <contour>
      <point x="105" y="592" type="line"/>
      <point x="249" y="592" type="line"/>
      <point x="304" y="800" type="line"/>
      <point x="152" y="800" type="line"/>
    </contour>
  </outline>
</glyph>
<glyph name="gamma" format="2">
  <advance height="1000" width="602"/>
  <unicode hex="03B3"/>
  <outline>
    <contour>
      <point x="213.0" y="-189.0" type="line"/>
      <point x="405.0" y="-189.0" type="line"/>
      <point x="405.0" y="0.0" type="line"/>
      <point x="541.0" y="352.0" type="line" smooth="yes"/>
      <point x="567.0" y="420.0"/>
      <point x="581.0" y="486.0"/>
      <point x="582.0" y="536.0" type="curve"/>
      <point x="397.0" y="536.0" type="line"/>
      <point x="394.0" y="489.0"/>
      <point x="387.0" y="446.0"/>
      <point x="370.0" y="388.0" type="curve" smooth="yes"/>
      <point x="323.0" y="230.0" type="line"/>
      <point x="224.0" y="536.0" type="line"/>
      <point x="20.0" y="536.0" type="line"/>
      <point x="213.0" y="0.0" type="line"/>
    </contour>
  </outline>
</glyph>
<glyph name="zeta" format="2">
  <advance height="1000" width="504"/>
  <unicode hex="03B6"/>
  <outline>
    <contour>
      <point x="306.0" y="-189.0" type="curve"/>
      <point x="470.0" y="-189.0" type="line"/>
      <point x="477.0" y="-164.0"/>
      <point x="484.0" y="-133.0"/>
      <point x="484.0" y="-77.0" type="curve" smooth="yes"/>
      <point x="484.0" y="11.0"/>
      <point x="445.0" y="74.0"/>
      <point x="340.0" y="97.0" type="curve" smooth="yes"/>
      <point x="313.0" y="103.0" type="line" smooth="yes"/>
      <point x="254.0" y="116.0"/>
      <point x="233.0" y="144.0"/>
      <point x="233.0" y="209.0" type="curve" smooth="yes"/>
      <point x="233.0" y="305.0"/>
      <point x="288.0" y="397.0"/>
      <point x="455.0" y="584.0" type="curve"/>
      <point x="455.0" y="741.0" type="line"/>
      <point x="45.0" y="741.0" type="line"/>
      <point x="45.0" y="573.0" type="line"/>
      <point x="261.0" y="573.0" type="line"/>
      <point x="101.0" y="402.0"/>
      <point x="36.0" y="288.0"/>
      <point x="36.0" y="168.0" type="curve" smooth="yes"/>
      <point x="36.0" y="37.0"/>
      <point x="90.0" y="-21.0"/>
      <point x="223.0" y="-54.0" type="curve" smooth="yes"/>
      <point x="251.0" y="-61.0" type="line" smooth="yes"/>
      <point x="297.0" y="-73.0"/>
      <point x="317.0" y="-89.0"/>
      <point x="317.0" y="-123.0" type="curve" smooth="yes"/>
      <point x="317.0" y="-155.0"/>
      <point x="312.0" y="-172.0"/>
    </contour>
  </outline>
</glyph>
<glyph name="kappa" format="2">
  <advance height="1000" width="617"/>
  <unicode hex="03BA"/>
  <outline>
    <contour>
      <point x="44" y="0" type="line"/>
      <point x="234" y="0" type="line"/>
      <point x="234" y="227" type="line"/>
      <point x="380" y="0" type="line"/>
      <point x="601" y="0" type="line"/>
      <point x="415" y="282" type="line"/>
      <point x="593" y="536" type="line"/>
      <point x="383" y="536" type="line"/>
      <point x="234" y="313" type="line"/>
      <point x="234" y="536" type="line"/>
      <point x="44" y="536" type="line"/>
    </contour>
  </outline>
</glyph>
<glyph name="rho" format="2">
  <advance height="1000" width="651"/>
  <unicode hex="03C1"/>
  <outline>
    <contour>
      <point x="61.0" y="-189.0" type="curve"/>
      <point x="253.0" y="-189.0" type="line"/>
      <point x="244.0" y="-150.0"/>
      <point x="239.0" y="-97.0"/>
      <point x="239.0" y="-35.0" type="curve" smooth="yes"/>
      <point x="239.0" y="102.0" type="line"/>
      <point x="171.0" y="102.0" type="line"/>
      <point x="217.0" y="29.0"/>
      <point x="277.0" y="-12.0"/>
      <point x="369.0" y="-12.0" type="curve" smooth="yes"/>
      <point x="516.0" y="-12.0"/>
      <point x="615.0" y="100.0"/>
      <point x="615.0" y="271.0" type="curve" smooth="yes"/>
      <point x="615.0" y="441.0"/>
      <point x="505.0" y="548.0"/>
      <point x="333.0" y="548.0" type="curve" smooth="yes"/>
      <point x="161.0" y="548.0"/>
      <point x="48.0" y="440.0"/>
      <point x="48.0" y="269.0" type="curve" smooth="yes"/>
      <point x="48.0" y="-35.0" type="line" smooth="yes"/>
      <point x="48.0" y="-97.0"/>
      <point x="54.0" y="-150.0"/>
    </contour>
    <contour>
      <point x="331.0" y="155.0" type="curve" smooth="yes"/>
      <point x="279.0" y="155.0"/>
      <point x="244.0" y="197.0"/>
      <point x="244.0" y="269.0" type="curve" smooth="yes"/>
      <point x="244.0" y="341.0"/>
      <point x="281.0" y="382.0"/>
      <point x="333.0" y="382.0" type="curve" smooth="yes"/>
      <point x="386.0" y="382.0"/>
      <point x="419.0" y="340.0"/>
      <point x="419.0" y="268.0" type="curve" smooth="yes"/>
      <point x="419.0" y="196.0"/>
      <point x="384.0" y="155.0"/>
    </contour>
  </outline>
</glyph>
<glyph name="sigma1" format="2">
  <advance height="1000" width="521"/>
  <unicode hex="03C2"/>
  <outline>
    <contour>
      <point x="310.0" y="-114.0" type="curve"/>
      <point x="475.0" y="-114.0" type="line"/>
      <point x="482.0" y="-87.0"/>
      <point x="489.0" y="-53.0"/>
      <point x="489.0" y="-17.0" type="curve" smooth="yes"/>
      <point x="489.0" y="82.0"/>
      <point x="440.0" y="145.0"/>
      <point x="345.0" y="167.0" type="curve" smooth="yes"/>
      <point x="317.0" y="174.0" type="line" smooth="yes"/>
      <point x="261.0" y="187.0"/>
      <point x="232.0" y="222.0"/>
      <point x="232.0" y="272.0" type="curve" smooth="yes"/>
      <point x="232.0" y="341.0"/>
      <point x="274.0" y="381.0"/>
      <point x="342.0" y="381.0" type="curve" smooth="yes"/>
      <point x="386.0" y="381.0"/>
      <point x="430.0" y="366.0"/>
      <point x="471.0" y="343.0" type="curve"/>
      <point x="471.0" y="516.0" type="line"/>
      <point x="424.0" y="537.0"/>
      <point x="370.0" y="548.0"/>
      <point x="319.0" y="548.0" type="curve" smooth="yes"/>
      <point x="145.0" y="548.0"/>
      <point x="36.0" y="440.0"/>
      <point x="36.0" y="267.0" type="curve" smooth="yes"/>
      <point x="36.0" y="126.0"/>
      <point x="105.0" y="42.0"/>
      <point x="243.0" y="14.0" type="curve" smooth="yes"/>
      <point x="271.0" y="9.0" type="line" smooth="yes"/>
      <point x="305.0" y="2.0"/>
      <point x="322.0" y="-18.0"/>
      <point x="322.0" y="-49.0" type="curve" smooth="yes"/>
      <point x="322.0" y="-80.0"/>
      <point x="316.0" y="-98.0"/>
    </contour>
  </outline>
</glyph>
<glyph name="chi" format="2">
  <advance height="1000" width="657"/>
  <unicode hex="03C7"/>
  <outline>
    <contour>
      <point x="28.0" y="-189.0" type="line"/>
      <point x="221.0" y="-189.0" type="line"/>
      <point x="620.0" y="536.0" type="line"/>
      <point x="427.0" y="536.0" type="line"/>
    </contour>
    <contour>
      <point x="414.0" y="-189.0" type="line"/>
      <point x="629.0" y="-189.0" type="line"/>
      <point x="248.0" y="536.0" type="line"/>
      <point x="33.0" y="536.0" type="line"/>
    </contour>
  </outline>
</glyph>
<glyph name="psi" format="2">
  <advance height="1000" width="792"/>
  <unicode hex="03C8"/>
  <outline>
    <contour>
      <point x="303.0" y="-150.0" type="line"/>
      <point x="493.0" y="-150.0" type="line"/>
      <point x="493.0" y="740.0" type="line"/>
      <point x="303.0" y="740.0" type="line"/>
    </contour>
    <contour>
      <point x="404.0" y="-9.0" type="curve" smooth="yes"/>
      <point x="631.0" y="-9.0"/>
      <point x="748.0" y="106.0"/>
      <point x="748.0" y="331.0" type="curve" smooth="yes"/>
      <point x="748.0" y="404.0"/>
      <point x="743.0" y="462.0"/>
      <point x="730.0" y="536.0" type="curve"/>
      <point x="543.0" y="536.0" type="line"/>
      <point x="556.0" y="459.0"/>
      <point x="561.0" y="400.0"/>
      <point x="561.0" y="325.0" type="curve" smooth="yes"/>
      <point x="561.0" y="214.0"/>
      <point x="508.0" y="155.0"/>
      <point x="412.0" y="155.0" type="curve" smooth="yes"/>
      <point x="296.0" y="155.0"/>
      <point x="232.0" y="205.0"/>
      <point x="232.0" y="296.0" type="curve" smooth="yes"/>
      <point x="232.0" y="536.0" type="line"/>
      <point x="44.0" y="536.0" type="line"/>
      <point x="44.0" y="286.0" type="line" smooth="yes"/>
      <point x="44.0" y="91.0"/>
      <point x="167.0" y="-9.0"/>
    </contour>
  </outline>
</glyph>
<glyph name="omegatonos" format="2">
  <advance height="1000" width="875"/>
  <unicode hex="03CE"/>
  <outline>
    <contour>
      <point x="284.0" y="-8.0" type="curve" smooth="yes"/>
      <point x="365.0" y="-9.0"/>
      <point x="414.0" y="29.0"/>
      <point x="449.0" y="103.0" type="curve"/>
      <point x="483.0" y="27.0"/>
      <point x="534.0" y="-8.0"/>
      <point x="616.0" y="-8.0" type="curve" smooth="yes"/>
      <point x="745.0" y="-8.0"/>
      <point x="827.0" y="79.0"/>
      <point x="827.0" y="263.0" type="curve" smooth="yes"/>
      <point x="827.0" y="355.0"/>
      <point x="822.0" y="445.0"/>
      <point x="807.0" y="536.0" type="curve"/>
      <point x="608.0" y="536.0" type="line"/>
      <point x="622.0" y="453.0"/>
      <point x="630.0" y="376.0"/>
      <point x="630.0" y="296.0" type="curve" smooth="yes"/>
      <point x="630.0" y="207.0"/>
      <point x="615.0" y="169.0"/>
      <point x="583.0" y="169.0" type="curve" smooth="yes"/>
      <point x="552.0" y="169.0"/>
      <point x="536.0" y="211.0"/>
      <point x="536.0" y="310.0" type="curve" smooth="yes"/>
      <point x="536.0" y="536.0" type="line"/>
      <point x="340.0" y="536.0" type="line"/>
      <point x="340.0" y="310.0" type="line" smooth="yes"/>
      <point x="340.0" y="211.0"/>
      <point x="324.0" y="169.0"/>
      <point x="293.0" y="169.0" type="curve" smooth="yes"/>
      <point x="261.0" y="169.0"/>
      <point x="246.0" y="210.0"/>
      <point x="246.0" y="305.0" type="curve" smooth="yes"/>
      <point x="247.0" y="383.0"/>
      <point x="256.0" y="455.0"/>
      <point x="268.0" y="536.0" type="curve"/>
      <point x="72.0" y="536.0" type="line"/>
      <point x="58.0" y="448.0"/>
      <point x="50.0" y="369.0"/>
      <point x="50.0" y="282.0" type="curve" smooth="yes"/>
      <point x="50.0" y="96.0"/>
      <point x="139.0" y="-9.0"/>
    </contour>
    <contour>
      <point x="364" y="592" type="line"/>
      <point x="508" y="592" type="line"/>
      <point x="563" y="800" type="line"/>
      <point x="411" y="800" type="line"/>
    </contour>
  </outline>
</glyph>
<glyph name="Gjecyrillic" format="2">
  <advance height="1000" width="550"/>
  <unicode hex="0403"/>
  <outline>
    <contour>
      <point x="64" y="0" type="line"/>
      <point x="264" y="0" type="line"/>
      <point x="264" y="560" type="line"/>
      <point x="526" y="560" type="line"/>
      <point x="526" y="740" type="line"/>
      <point x="64" y="740" type="line"/>
    </contour>
    <contour>
      <point x="364" y="787" type="line"/>
      <point x="486" y="943" type="line"/>
      <point x="320" y="943" type="line"/>
      <point x="219" y="787" type="line"/>
    </contour>
  </outline>
</glyph>
<glyph name="Ecyrillic" format="2">
  <advance height="1000" width="728"/>
  <unicode hex="0404"/>
  <outline>
    <contour>
      <point x="678" y="223" type="line"/>
      <point x="609" y="181"/>
      <point x="540" y="159"/>
      <point x="461" y="159" type="curve" smooth="yes"/>
      <point x="329" y="159"/>
      <point x="248" y="239"/>
      <point x="248" y="373" type="curve" smooth="yes"/>
      <point x="248" y="504"/>
      <point x="329" y="584"/>
      <point x="461" y="584" type="curve" smooth="yes"/>
      <point x="535" y="584"/>
      <point x="603" y="565"/>
      <point x="670" y="524" type="curve"/>
      <point x="670" y="708" type="line"/>
      <point x="602" y="741"/>
      <point x="532" y="757"/>
      <point x="454" y="757" type="curve" smooth="yes"/>
      <point x="204" y="757"/>
      <point x="44" y="609"/>
      <point x="44" y="373" type="curve" smooth="yes"/>
      <point x="44" y="137"/>
      <point x="204" y="-14"/>
      <point x="454" y="-14" type="curve" smooth="yes"/>
      <point x="535" y="-14"/>
      <point x="607" y="3"/>
      <point x="678" y="41" type="curve"/>
    </contour>
    <contour>
      <point x="541" y="452" type="line"/>
      <point x="222" y="452" type="line"/>
      <point x="222" y="293" type="line"/>
      <point x="541" y="293" type="line"/>
    </contour>
  </outline>
</glyph>
<glyph name="Jecyrillic" format="2">
  <advance height="1000" width="448"/>
  <unicode hex="0408"/>
  <outline>
    <contour>
      <point x="130.0" y="-12.0" type="curve" smooth="yes"/>
      <point x="285.0" y="-12.0"/>
      <point x="388.0" y="85.0"/>
      <point x="388.0" y="259.0" type="curve" smooth="yes"/>
      <point x="388.0" y="740.0" type="line"/>
      <point x="188.0" y="740.0" type="line"/>
      <point x="188.0" y="258.0" type="line" smooth="yes"/>
      <point x="188.0" y="200.0"/>
      <point x="157.0" y="162.0"/>
      <point x="96.0" y="162.0" type="curve" smooth="yes"/>
      <point x="73.0" y="162.0"/>
      <point x="47.0" y="166.0"/>
      <point x="32.0" y="171.0" type="curve"/>
      <point x="32.0" y="0.0" type="line"/>
      <point x="59.0" y="-7.0"/>
      <point x="98.0" y="-12.0"/>
    </contour>
  </outline>
</glyph>
<glyph name="Ljecyrillic" format="2">
  <advance height="1000" width="1133"/>
  <unicode hex="0409"/>
  <outline>
    <contour>
      <point x="95" y="-16" type="curve" smooth="yes"/>
      <point x="159" y="-16"/>
      <point x="219" y="6"/>
      <point x="255" y="42" type="curve" smooth="yes"/>
      <point x="325" y="112"/>
      <point x="363" y="206"/>
      <point x="363" y="518" type="curve" smooth="yes"/>
      <point x="363" y="560" type="line"/>
      <point x="522" y="560" type="line"/>
      <point x="522" y="0" type="line"/>
      <point x="807" y="0" type="line" smooth="yes"/>
      <point x="985" y="0"/>
      <point x="1101" y="101"/>
      <point x="1101" y="264" type="curve" smooth="yes"/>
      <point x="1101" y="427"/>
      <point x="986" y="517"/>
      <point x="807" y="517" type="curve" smooth="yes"/>
      <point x="722" y="517" type="line"/>
      <point x="722" y="740" type="line"/>
      <point x="177" y="740" type="line"/>
      <point x="177" y="566" type="line" smooth="yes"/>
      <point x="177" y="284"/>
      <point x="156" y="219"/>
      <point x="122" y="185" type="curve" smooth="yes"/>
      <point x="105" y="168"/>
      <point x="86" y="162"/>
      <point x="60" y="162" type="curve" smooth="yes"/>
      <point x="48" y="162"/>
      <point x="32" y="165"/>
      <point x="20" y="169" type="curve"/>
      <point x="20" y="-8" type="line"/>
      <point x="36" y="-13"/>
      <point x="57" y="-16"/>
    </contour>
    <contour>
      <point x="722" y="166" type="line"/>
      <point x="722" y="351" type="line"/>
      <point x="797" y="351" type="line" smooth="yes"/>
      <point x="856" y="351"/>
      <point x="899" y="319"/>
      <point x="899" y="258" type="curve" smooth="yes"/>
      <point x="899" y="198"/>
      <point x="856" y="166"/>
      <point x="797" y="166" type="curve" smooth="yes"/>
    </contour>
  </outline>
</glyph>
<glyph name="Igravecyrillic" format="2">
  <advance height="1000" width="802"/>
  <unicode hex="040D"/>
  <outline>
    <contour>
      <point x="64" y="0" type="line"/>
      <point x="258" y="0" type="line"/>
      <point x="544" y="453" type="line"/>
      <point x="544" y="0" type="line"/>
      <point x="738" y="0" type="line"/>
      <point x="738" y="740" type="line"/>
      <point x="544" y="740" type="line"/>
      <point x="258" y="287" type="line"/>
      <point x="258" y="740" type="line"/>
      <point x="64" y="740" type="line"/>
    </contour>
    <contour>
      <point x="326" y="787" type="line"/>
      <point x="471" y="787" type="line"/>
      <point x="370" y="943" type="line"/>
      <point x="204" y="943" type="line"/>
    </contour>
  </outline>
</glyph>
<glyph name="Ushortcyrillic" format="2">
  <advance height="1000" width="762"/>
  <unicode hex="040E"/>
  <outline>
    <contour>
      <point x="223" y="-16" type="curve" smooth="yes"/>
      <point x="353" y="-16"/>
      <point x="447" y="35"/>
      <point x="530" y="226" type="curve" smooth="yes"/>
      <point x="752" y="740" type="line"/>
      <point x="551" y="740" type="line"/>
      <point x="420" y="421" type="line"/>
      <point x="245" y="740" type="line"/>
      <point x="14" y="740" type="line"/>
      <point x="317" y="234" type="line"/>
      <point x="313" y="225" type="line" smooth="yes"/>
      <point x="294" y="183"/>
      <point x="259" y="167"/>
      <point x="203" y="167" type="curve" smooth="yes"/>
      <point x="173" y="167"/>
      <point x="145" y="173"/>
      <point x="129" y="180" type="curve"/>
      <point x="129" y="-6" type="line"/>
      <point x="143" y="-10"/>
      <point x="189" y="-16"/>
    </contour>
    <contour>
      <point x="344" y="935" type="curve"/>
      <point x="224" y="935" type="line"/>
      <point x="224" y="835"/>
      <point x="286" y="779"/>
      <point x="391" y="779" type="curve" smooth="yes"/>
      <point x="496" y="779"/>
      <point x="558" y="835"/>
      <point x="558" y="935" type="curve"/>
      <point x="438" y="935" type="line"/>
      <point x="438" y="889"/>
      <point x="422" y="871"/>
      <point x="391" y="871" type="curve" smooth="yes"/>
      <point x="360" y="871"/>
      <point x="344" y="889"/>
    </contour>
  </outline>
</glyph>
<glyph name="Iishortcyrillic" format="2">
  <advance height="1000" width="802"/>
  <unicode hex="0419"/>
  <outline>
    <contour>
      <point x="64" y="0" type="line"/>
      <point x="258" y="0" type="line"/>
      <point x="544" y="453" type="line"/>
      <point x="544" y="0" type="line"/>
      <point x="738" y="0" type="line"/>
      <point x="738" y="740" type="line"/>
      <point x="544" y="740" type="line"/>
      <point x="258" y="287" type="line"/>
      <point x="258" y="740" type="line"/>
      <point x="64" y="740" type="line"/>
    </contour>
    <contour>
      <point x="351" y="935" type="curve"/>
      <point x="231" y="935" type="line"/>
      <point x="231" y="835"/>
      <point x="293" y="779"/>
      <point x="398" y="779" type="curve" smooth="yes"/>
      <point x="503" y="779"/>
      <point x="565" y="835"/>
      <point x="565" y="935" type="curve"/>
      <point x="445" y="935" type="line"/>
      <point x="445" y="889"/>
      <point x="429" y="871"/>
      <point x="398" y="871" type="curve" smooth="yes"/>
      <point x="367" y="871"/>
      <point x="351" y="889"/>
    </contour>
  </outline>
</glyph>
<glyph name="Encyrillic" format="2">
  <advance height="1000" width="792"/>
  <unicode hex="041D"/>
  <outline>
    <contour>
      <point x="64" y="0" type="line"/>
      <point x="264" y="0" type="line"/>
      <point x="264" y="282" type="line"/>
      <point x="528" y="282" type="line"/>
      <point x="528" y="0" type="line"/>
      <point x="728" y="0" type="line"/>
      <point x="728" y="740" type="line"/>
      <point x="528" y="740" type="line"/>
      <point x="528" y="462" type="line"/>
      <point x="264" y="462" type="line"/>
      <point x="264" y="740" type="line"/>
      <point x="64" y="740" type="line"/>
    </contour>
  </outline>
</glyph>
<glyph name="Ocyrillic" format="2">
  <advance height="1000" width="882"/>
  <unicode hex="041E"/>
  <outline>
    <contour>
      <point x="441.0" y="-16.0" type="curve" smooth="yes"/>
      <point x="684.0" y="-16.0"/>
      <point x="838.0" y="133.0"/>
      <point x="838.0" y="371.0" type="curve" smooth="yes"/>
      <point x="838.0" y="611.0"/>
      <point x="679.0" y="756.0"/>
      <point x="441.0" y="756.0" type="curve" smooth="yes"/>
      <point x="203.0" y="756.0"/>
      <point x="44.0" y="606.0"/>
      <point x="44.0" y="371.0" type="curve" smooth="yes"/>
      <point x="44.0" y="137.0"/>
      <point x="198.0" y="-16.0"/>
    </contour>
    <contour>
      <point x="441.0" y="162.0" type="curve" smooth="yes"/>
      <point x="323.0" y="162.0"/>
      <point x="248.0" y="242.0"/>
      <point x="248.0" y="371.0" type="curve" smooth="yes"/>
      <point x="248.0" y="502.0"/>
      <point x="323.0" y="578.0"/>
      <point x="441.0" y="578.0" type="curve" smooth="yes"/>
      <point x="559.0" y="578.0"/>
      <point x="634.0" y="502.0"/>
      <point x="634.0" y="371.0" type="curve" smooth="yes"/>
      <point x="634.0" y="242.0"/>
      <point x="559.0" y="162.0"/>
    </contour>
  </outline>
</glyph>
<glyph name="Ercyrillic" format="2">
  <advance height="1000" width="647"/>
  <unicode hex="0420"/>
  <outline>
    <contour>
      <point x="64" y="0" type="line"/>
      <point x="264" y="0" type="line"/>
      <point x="264" y="198" type="line"/>
      <point x="315" y="198" type="line" smooth="yes"/>
      <point x="495.0" y="198.0"/>
      <point x="615" y="307"/>
      <point x="615" y="470" type="curve" smooth="yes"/>
      <point x="615" y="632"/>
      <point x="495.0" y="740.0"/>
      <point x="316" y="740" type="curve" smooth="yes"/>
      <point x="64" y="740" type="line"/>
    </contour>
    <contour>
      <point x="264" y="366" type="line"/>
      <point x="264" y="572" type="line"/>
      <point x="302" y="572" type="line" smooth="yes"/>
      <point x="369" y="572"/>
      <point x="413" y="532"/>
      <point x="413" y="472" type="curve" smooth="yes"/>
      <point x="413" y="408"/>
      <point x="369" y="366"/>
      <point x="304" y="366" type="curve" smooth="yes"/>
    </contour>
  </outline>
</glyph>
<glyph name="Escyrillic" format="2">
  <advance height="1000" width="726"/>
  <unicode hex="0421"/>
  <outline>
    <contour>
      <point x="454.0" y="-16.0" type="curve" smooth="yes"/>
      <point x="535.0" y="-16.0"/>
      <point x="607.0" y="0.0"/>
      <point x="678.0" y="38.0" type="curve"/>
      <point x="678.0" y="227.0" type="line"/>
      <point x="609.0" y="184.0"/>
      <point x="540.0" y="162.0"/>
      <point x="461.0" y="162.0" type="curve" smooth="yes"/>
      <point x="333.0" y="162.0"/>
      <point x="248.0" y="243.0"/>
      <point x="248.0" y="371.0" type="curve" smooth="yes"/>
      <point x="248.0" y="498.0"/>
      <point x="333.0" y="578.0"/>
      <point x="461.0" y="578.0" type="curve" smooth="yes"/>
      <point x="535.0" y="578.0"/>
      <point x="603.0" y="559.0"/>
      <point x="670.0" y="518.0" type="curve"/>
      <point x="670.0" y="707.0" type="line"/>
      <point x="602.0" y="740.0"/>
      <point x="532.0" y="756.0"/>
      <point x="454.0" y="756.0" type="curve" smooth="yes"/>
      <point x="204.0" y="756.0"/>
      <point x="44.0" y="607.0"/>
      <point x="44.0" y="371.0" type="curve" smooth="yes"/>
      <point x="44.0" y="135.0"/>
      <point x="204.0" y="-16.0"/>
    </contour>
  </outline>
</glyph>
<glyph name="Tecyrillic" format="2">
  <advance height="1000" width="648"/>
  <unicode hex="0422"/>
  <outline>
    <contour>
      <point x="224.0" y="0.0" type="line"/>
      <point x="424.0" y="0.0" type="line"/>
      <point x="424.0" y="560.0" type="line"/>
      <point x="624.0" y="560.0" type="line"/>
      <point x="624.0" y="740.0" type="line"/>
      <point x="24.0" y="740.0" type="line"/>
      <point x="24.0" y="560.0" type="line"/>
      <point x="224.0" y="560.0" type="line"/>
    </contour>
  </outline>
</glyph>
<glyph name="Tsecyrillic" format="2">
  <advance height="1000" width="846"/>
  <unicode hex="0426"/>
  <outline>
    <contour>
      <point x="626" y="0" type="line"/>
      <point x="626" y="-133" type="line"/>
      <point x="814" y="-133" type="line"/>
      <point x="814" y="180" type="line"/>
      <point x="704" y="180" type="line"/>
      <point x="704" y="740" type="line"/>
      <point x="504" y="740" type="line"/>
      <point x="504" y="180" type="line"/>
      <point x="264" y="180" type="line"/>
      <point x="264" y="740" type="line"/>
      <point x="64" y="740" type="line"/>
      <point x="64" y="0" type="line"/>
    </contour>
  </outline>
</glyph>
<glyph name="Checyrillic" format="2">
  <advance height="1000" width="746"/>
  <unicode hex="0427"/>
  <outline>
    <contour>
      <point x="482" y="0" type="line"/>
      <point x="682" y="0" type="line"/>
      <point x="682" y="740" type="line"/>
      <point x="482" y="740" type="line"/>
      <point x="482" y="412" type="line"/>
      <point x="462" y="402"/>
      <point x="412" y="392"/>
      <point x="366" y="392" type="curve" smooth="yes"/>
      <point x="277" y="392"/>
      <point x="248" y="416"/>
      <point x="248" y="492" type="curve" smooth="yes"/>
      <point x="248" y="740" type="line"/>
      <point x="48" y="740" type="line"/>
      <point x="48" y="468" type="line" smooth="yes"/>
      <point x="48" y="290"/>
      <point x="137" y="215"/>
      <point x="314" y="215" type="curve" smooth="yes"/>
      <point x="376" y="215"/>
      <point x="440" y="225"/>
      <point x="482" y="241" type="curve"/>
    </contour>
  </outline>
</glyph>
<glyph name="Shacyrillic" format="2">
  <advance height="1000" width="1094"/>
  <unicode hex="0428"/>
  <outline>
    <contour>
      <point x="64" y="0" type="line"/>
      <point x="1030" y="0" type="line"/>
      <point x="1030" y="740" type="line"/>
      <point x="830" y="740" type="line"/>
      <point x="830" y="180" type="line"/>
      <point x="646" y="180" type="line"/>
      <point x="646" y="740" type="line"/>
      <point x="448" y="740" type="line"/>
      <point x="448" y="180" type="line"/>
      <point x="264" y="180" type="line"/>
      <point x="264" y="740" type="line"/>
      <point x="64" y="740" type="line"/>
    </contour>
  </outline>
</glyph>
<glyph name="Shchacyrillic" format="2">
  <advance height="1000" width="1172"/>
  <unicode hex="0429"/>
  <outline>
    <contour>
      <point x="64" y="0" type="line"/>
      <point x="952" y="0" type="line"/>
      <point x="952" y="-133" type="line"/>
      <point x="1140" y="-133" type="line"/>
      <point x="1140" y="180" type="line"/>
      <point x="1030" y="180" type="line"/>
      <point x="1030" y="740" type="line"/>
      <point x="830" y="740" type="line"/>
      <point x="830" y="180" type="line"/>
      <point x="646" y="180" type="line"/>
      <point x="646" y="740" type="line"/>
      <point x="448" y="740" type="line"/>
      <point x="448" y="180" type="line"/>
      <point x="264" y="180" type="line"/>
      <point x="264" y="740" type="line"/>
      <point x="64" y="740" type="line"/>
    </contour>
  </outline>
</glyph>
<glyph name="Hardsigncyrillic" format="2">
  <advance height="1000" width="821"/>
  <unicode hex="042A"/>
  <outline>
    <contour>
      <point x="204" y="0" type="line"/>
      <point x="495" y="0" type="line" smooth="yes"/>
      <point x="673" y="0"/>
      <point x="789" y="101"/>
      <point x="789" y="264" type="curve" smooth="yes"/>
      <point x="789" y="427"/>
      <point x="674" y="517"/>
      <point x="495" y="517" type="curve" smooth="yes"/>
      <point x="404" y="517" type="line"/>
      <point x="404" y="740" type="line"/>
      <point x="24" y="740" type="line"/>
      <point x="24" y="560" type="line"/>
      <point x="204" y="560" type="line"/>
    </contour>
    <contour>
      <point x="404" y="166" type="line"/>
      <point x="404" y="351" type="line"/>
      <point x="485" y="351" type="line" smooth="yes"/>
      <point x="544" y="351"/>
      <point x="587" y="319"/>
      <point x="587" y="258" type="curve" smooth="yes"/>
      <point x="587" y="198"/>
      <point x="544" y="166"/>
      <point x="485" y="166" type="curve" smooth="yes"/>
    </contour>
  </outline>
</glyph>
<glyph name="IUcyrillic" format="2">
  <advance height="1000" width="1147"/>
  <unicode hex="042E"/>
  <outline>
    <contour>
      <point x="64" y="0" type="line"/>
      <point x="264" y="0" type="line"/>
      <point x="264" y="284" type="line"/>
      <point x="474" y="284" type="line"/>
      <point x="474" y="460" type="line"/>
      <point x="264" y="460" type="line"/>
      <point x="264" y="740" type="line"/>
      <point x="64" y="740" type="line"/>
    </contour>
    <contour>
      <point x="350" y="371" type="curve" smooth="yes"/>
      <point x="350" y="137"/>
      <point x="496" y="-16"/>
      <point x="726" y="-16" type="curve"/>
      <point x="957" y="-16"/>
      <point x="1103" y="133"/>
      <point x="1103" y="371" type="curve" smooth="yes"/>
      <point x="1103" y="611"/>
      <point x="952" y="756"/>
      <point x="726" y="756" type="curve" smooth="yes"/>
      <point x="501" y="756"/>
      <point x="350" y="606"/>
    </contour>
    <contour>
      <point x="554" y="371" type="curve" smooth="yes"/>
      <point x="554" y="502"/>
      <point x="621" y="578"/>
      <point x="726" y="578" type="curve" smooth="yes"/>
      <point x="832" y="578"/>
      <point x="899" y="502"/>
      <point x="899" y="371" type="curve" smooth="yes"/>
      <point x="899" y="242"/>
      <point x="832" y="162"/>
      <point x="726" y="162" type="curve"/>
      <point x="621" y="162"/>
      <point x="554" y="242"/>
    </contour>
  </outline>
</glyph>
<glyph name="acyrillic" format="2">
  <advance height="1000" width="567"/>
  <unicode hex="0430"/>
  <outline>
    <contour>
      <point x="196.0" y="-12.0" type="curve" smooth="yes"/>
      <point x="257.0" y="-12.0"/>
      <point x="304.0" y="16.0"/>
      <point x="334.0" y="67.0" type="curve"/>
      <point x="345.0" y="0.0" type="line"/>
      <point x="523.0" y="0.0" type="line"/>
      <point x="523.0" y="360.0" type="line" smooth="yes"/>
      <point x="523.0" y="480.0"/>
      <point x="429.0" y="548.0"/>
      <point x="275.0" y="548.0" type="curve" smooth="yes"/>
      <point x="199.0" y="548.0"/>
      <point x="128.0" y="533.0"/>
      <point x="63.0" y="509.0" type="curve"/>
      <point x="63.0" y="355.0" type="line"/>
      <point x="116.0" y="385.0"/>
      <point x="176.0" y="403.0"/>
      <point x="234.0" y="403.0" type="curve" smooth="yes"/>
      <point x="300.0" y="403.0"/>
      <point x="333.0" y="385.0"/>
      <point x="333.0" y="352.0" type="curve" smooth="yes"/>
      <point x="333.0" y="339.0" type="line"/>
      <point x="241.0" y="323.0" type="line" smooth="yes"/>
      <point x="107.0" y="299.0"/>
      <point x="36.0" y="248.0"/>
      <point x="36.0" y="141.0" type="curve" smooth="yes"/>
      <point x="36.0" y="51.0"/>
      <point x="100.0" y="-12.0"/>
    </contour>
    <contour>
      <point x="272.0" y="127.0" type="curve" smooth="yes"/>
      <point x="243.0" y="127.0"/>
      <point x="223.0" y="143.0"/>
      <point x="223.0" y="172.0" type="curve" smooth="yes"/>
      <point x="223.0" y="203.0"/>
      <point x="245.0" y="222.0"/>
      <point x="276.0" y="228.0" type="curve" smooth="yes"/>
      <point x="333.0" y="237.0" type="line"/>
      <point x="333.0" y="165.0" type="line"/>
      <point x="322.0" y="141.0"/>
      <point x="299.0" y="127.0"/>
    </contour>
  </outline>
</glyph>
<glyph name="becyrillic" format="2">
  <advance height="1000" width="618"/>
  <unicode hex="0431"/>
  <outline>
    <contour>
      <point x="545" y="581" type="line"/>
      <point x="545" y="760" type="line"/>
      <point x="425" y="744" type="line" smooth="yes"/>
      <point x="290" y="726"/>
      <point x="201" y="686"/>
      <point x="137" y="622" type="curve" smooth="yes"/>
      <point x="67" y="552"/>
      <point x="36" y="449"/>
      <point x="36" y="324" type="curve" smooth="yes"/>
      <point x="36" y="95"/>
      <point x="146" y="-12"/>
      <point x="318" y="-12" type="curve" smooth="yes"/>
      <point x="470" y="-12"/>
      <point x="584" y="88"/>
      <point x="584" y="248" type="curve" smooth="yes"/>
      <point x="584" y="396"/>
      <point x="488" y="481"/>
      <point x="376" y="481" type="curve" smooth="yes"/>
      <point x="306" y="481"/>
      <point x="248" y="457"/>
      <point x="214" y="413" type="curve"/>
      <point x="225" y="457"/>
      <point x="239" y="484"/>
      <point x="259" y="504" type="curve" smooth="yes"/>
      <point x="291" y="536"/>
      <point x="337" y="553"/>
      <point x="425" y="565" type="curve" smooth="yes"/>
    </contour>
    <contour>
      <point x="309" y="323" type="curve" smooth="yes"/>
      <point x="357" y="323"/>
      <point x="393" y="288"/>
      <point x="393" y="234" type="curve" smooth="yes"/>
      <point x="393" y="180"/>
      <point x="357" y="146"/>
      <point x="309" y="146" type="curve" smooth="yes"/>
      <point x="261" y="146"/>
      <point x="225" y="182"/>
      <point x="225" y="236" type="curve" smooth="yes"/>
      <point x="225" y="290"/>
      <point x="261" y="323"/>
    </contour>
  </outline>
</glyph>
<glyph name="gecyrillic" format="2">
  <advance height="1000" width="467"/>
  <unicode hex="0433"/>
  <outline>
    <contour>
      <point x="48" y="0" type="line"/>
      <point x="238" y="0" type="line"/>
      <point x="238" y="376" type="line"/>
      <point x="443" y="376" type="line"/>
      <point x="443" y="536" type="line"/>
      <point x="48" y="536" type="line"/>
    </contour>
  </outline>
</glyph>
<glyph name="decyrillic" format="2">
  <advance height="1000" width="732"/>
  <unicode hex="0434"/>
  <outline>
    <contour>
      <point x="200" y="-118" type="line"/>
      <point x="200" y="0" type="line"/>
      <point x="522" y="0" type="line"/>
      <point x="522" y="-118" type="line"/>
      <point x="708" y="-118" type="line"/>
      <point x="708" y="160" type="line"/>
      <point x="622" y="160" type="line"/>
      <point x="622" y="536" type="line"/>
      <point x="138" y="536" type="line"/>
      <point x="138" y="420" type="line" smooth="yes"/>
      <point x="138" y="294"/>
      <point x="114" y="210"/>
      <point x="82" y="160" type="curve"/>
      <point x="14" y="160" type="line"/>
      <point x="14" y="-118" type="line"/>
    </contour>
    <contour>
      <point x="432" y="384" type="line"/>
      <point x="432" y="160" type="line"/>
      <point x="268" y="160" type="line"/>
      <point x="296" y="210"/>
      <point x="311" y="277"/>
      <point x="311" y="343" type="curve" smooth="yes"/>
      <point x="311" y="384" type="line"/>
    </contour>
  </outline>
</glyph>
<glyph name="kacyrillic" format="2">
  <advance height="1000" width="618"/>
  <unicode hex="043A"/>
  <outline>
    <contour>
      <point x="418" y="287" type="line"/>
      <point x="592" y="536" type="line"/>
      <point x="381" y="536" type="line"/>
      <point x="261" y="351" type="line"/>
      <point x="238" y="351" type="line"/>
      <point x="238" y="536" type="line"/>
      <point x="48" y="536" type="line"/>
      <point x="48" y="0" type="line"/>
      <point x="238" y="0" type="line"/>
      <point x="238" y="195" type="line"/>
      <point x="261" y="195" type="line"/>
      <point x="384" y="0" type="line"/>
      <point x="606" y="0" type="line"/>
    </contour>
  </outline>
</glyph>
<glyph name="elcyrillic" format="2">
  <advance height="1000" width="649"/>
  <unicode hex="043B"/>
  <outline>
    <contour>
      <point x="14" y="155" type="curve"/>
      <point x="14" y="-7" type="line"/>
      <point x="28" y="-13"/>
      <point x="51" y="-18"/>
      <point x="79" y="-18" type="curve" smooth="yes"/>
      <point x="137" y="-18"/>
      <point x="186" y="-4"/>
      <point x="225" y="35" type="curve" smooth="yes"/>
      <point x="273" y="83"/>
      <point x="305" y="175"/>
      <point x="305" y="334" type="curve" smooth="yes"/>
      <point x="305" y="376" type="line"/>
      <point x="411" y="376" type="line"/>
      <point x="411" y="0" type="line"/>
      <point x="601" y="0" type="line"/>
      <point x="601" y="536" type="line"/>
      <point x="127" y="536" type="line"/>
      <point x="127" y="394" type="line" smooth="yes"/>
      <point x="127" y="245"/>
      <point x="112" y="188"/>
      <point x="89" y="165" type="curve" smooth="yes"/>
      <point x="79" y="155"/>
      <point x="66" y="151"/>
      <point x="48" y="151" type="curve" smooth="yes"/>
      <point x="33" y="151"/>
      <point x="23" y="152"/>
    </contour>
  </outline>
</glyph>
<glyph name="encyrillic" format="2">
  <advance height="1000" width="616"/>
  <unicode hex="043D"/>
  <outline>
    <contour>
      <point x="48" y="0" type="line"/>
      <point x="238" y="0" type="line"/>
      <point x="238" y="189" type="line"/>
      <point x="378" y="189" type="line"/>
      <point x="378" y="0" type="line"/>
      <point x="568" y="0" type="line"/>
      <point x="568" y="536" type="line"/>
      <point x="378" y="536" type="line"/>
      <point x="378" y="349" type="line"/>
      <point x="238" y="349" type="line"/>
      <point x="238" y="536" type="line"/>
      <point x="48" y="536" type="line"/>
    </contour>
  </outline>
</glyph>
<glyph name="tecyrillic" format="2">
  <advance height="1000" width="534"/>
  <unicode hex="0442"/>
  <outline>
    <contour>
      <point x="362" y="0" type="line"/>
      <point x="362" y="376" type="line"/>
      <point x="510" y="376" type="line"/>
      <point x="510" y="536" type="line"/>
      <point x="24" y="536" type="line"/>
      <point x="24" y="376" type="line"/>
      <point x="172" y="376" type="line"/>
      <point x="172" y="0" type="line"/>
    </contour>
  </outline>
</glyph>
<glyph name="khacyrillic" format="2">
  <advance height="1000" width="610"/>
  <unicode hex="0445"/>
  <outline>
    <contour>
      <point x="12" y="0" type="line"/>
      <point x="217" y="0" type="line"/>
      <point x="297" y="133" type="line"/>
      <point x="377" y="0" type="line"/>
      <point x="598" y="0" type="line"/>
      <point x="411" y="275" type="line"/>
      <point x="586" y="536" type="line"/>
      <point x="385" y="536" type="line"/>
      <point x="310" y="408" type="line"/>
      <point x="235" y="536" type="line"/>
      <point x="19" y="536" type="line"/>
      <point x="196" y="271" type="line"/>
    </contour>
  </outline>
</glyph>
<glyph name="tsecyrillic" format="2">
  <advance height="1000" width="666"/>
  <unicode hex="0446"/>
  <outline>
    <contour>
      <point x="556" y="536" type="line"/>
      <point x="366" y="536" type="line"/>
      <point x="366" y="160" type="line"/>
      <point x="238" y="160" type="line"/>
      <point x="238" y="536" type="line"/>
      <point x="48" y="536" type="line"/>
      <point x="48" y="0" type="line"/>
      <point x="456" y="0" type="line"/>
      <point x="456" y="-118" type="line"/>
      <point x="642" y="-118" type="line"/>
      <point x="642" y="160" type="line"/>
      <point x="556" y="160" type="line"/>
    </contour>
  </outline>
</glyph>
<glyph name="checyrillic" format="2">
  <advance height="1000" width="592"/>
  <unicode hex="0447"/>
  <outline>
    <contour>
      <point x="354" y="0" type="line"/>
      <point x="544" y="0" type="line"/>
      <point x="544" y="536" type="line"/>
      <point x="354" y="536" type="line"/>
      <point x="354" y="310" type="line"/>
      <point x="340" y="298"/>
      <point x="313" y="289"/>
      <point x="286" y="289" type="curve" smooth="yes"/>
      <point x="246" y="289"/>
      <point x="228" y="304"/>
      <point x="228" y="346" type="curve" smooth="yes"/>
      <point x="228" y="536" type="line"/>
      <point x="38" y="536" type="line"/>
      <point x="38" y="313" type="line" smooth="yes"/>
      <point x="38" y="181"/>
      <point x="104" y="129"/>
      <point x="226" y="129" type="curve" smooth="yes"/>
      <point x="272" y="129"/>
      <point x="320" y="141"/>
      <point x="354" y="161" type="curve"/>
    </contour>
  </outline>
</glyph>
<glyph name="shacyrillic" format="2">
  <advance height="1000" width="866"/>
  <unicode hex="0448"/>
  <outline>
    <contour>
      <point x="48" y="0" type="line"/>
      <point x="818" y="0" type="line"/>
      <point x="818" y="536" type="line"/>
      <point x="628" y="536" type="line"/>
      <point x="628" y="160" type="line"/>
      <point x="527" y="160" type="line"/>
      <point x="527" y="536" type="line"/>
      <point x="339" y="536" type="line"/>
      <point x="339" y="160" type="line"/>
      <point x="238" y="160" type="line"/>
      <point x="238" y="536" type="line"/>
      <point x="48" y="536" type="line"/>
    </contour>
  </outline>
</glyph>
<glyph name="shchacyrillic" format="2">
  <advance height="1000" width="928"/>
  <unicode hex="0449"/>
  <outline>
    <contour>
      <point x="48" y="0" type="line"/>
      <point x="718" y="0" type="line"/>
      <point x="718" y="-118" type="line"/>
      <point x="904" y="-118" type="line"/>
      <point x="904" y="160" type="line"/>
      <point x="818" y="160" type="line"/>
      <point x="818" y="536" type="line"/>
      <point x="628" y="536" type="line"/>
      <point x="628" y="160" type="line"/>
      <point x="527" y="160" type="line"/>
      <point x="527" y="536" type="line"/>
      <point x="339" y="536" type="line"/>
      <point x="339" y="160" type="line"/>
      <point x="238" y="160" type="line"/>
      <point x="238" y="536" type="line"/>
      <point x="48" y="536" type="line"/>
    </contour>
  </outline>
</glyph>
<glyph name="yericyrillic" format="2">
  <advance height="1000" width="835"/>
  <unicode hex="044B"/>
  <outline>
    <contour>
      <point x="597" y="0" type="line"/>
      <point x="787" y="0" type="line"/>
      <point x="787" y="536" type="line"/>
      <point x="597" y="536" type="line"/>
    </contour>
    <contour>
      <point x="48" y="0" type="line"/>
      <point x="312" y="0" type="line" smooth="yes"/>
      <point x="456" y="0"/>
      <point x="543" y="70"/>
      <point x="543" y="198" type="curve" smooth="yes"/>
      <point x="543" y="326"/>
      <point x="456" y="392"/>
      <point x="314" y="392" type="curve" smooth="yes"/>
      <point x="238" y="392" type="line"/>
      <point x="238" y="536" type="line"/>
      <point x="48" y="536" type="line"/>
    </contour>
    <contour>
      <point x="238" y="258" type="line"/>
      <point x="281" y="258" type="line" smooth="yes"/>
      <point x="323" y="258"/>
      <point x="347" y="236"/>
      <point x="347" y="196" type="curve" smooth="yes"/>
      <point x="347" y="156"/>
      <point x="323" y="134"/>
      <point x="281" y="134" type="curve" smooth="yes"/>
      <point x="238" y="134" type="line"/>
    </contour>
  </outline>
</glyph>
<glyph name="softsigncyrillic" format="2">
  <advance height="1000" width="573"/>
  <unicode hex="044C"/>
  <outline>
    <contour>
      <point x="48" y="0" type="line"/>
      <point x="320" y="0" type="line" smooth="yes"/>
      <point x="464" y="0"/>
      <point x="551" y="70"/>
      <point x="551" y="198" type="curve" smooth="yes"/>
      <point x="551" y="326"/>
      <point x="464" y="392"/>
      <point x="322" y="392" type="curve" smooth="yes"/>
      <point x="238" y="392" type="line"/>
      <point x="238" y="536" type="line"/>
      <point x="48" y="536" type="line"/>
    </contour>
    <contour>
      <point x="238" y="258" type="line"/>
      <point x="289" y="258" type="line" smooth="yes"/>
      <point x="331" y="258"/>
      <point x="355" y="236"/>
      <point x="355" y="196" type="curve" smooth="yes"/>
      <point x="355" y="156"/>
      <point x="331" y="134"/>
      <point x="289" y="134" type="curve" smooth="yes"/>
      <point x="238" y="134" type="line"/>
    </contour>
  </outline>
</glyph>
<glyph name="iacyrillic" format="2">
  <advance height="1000" width="615"/>
  <unicode hex="044F"/>
  <outline>
    <contour>
      <point x="20" y="0" type="line"/>
      <point x="238" y="0" type="line"/>
      <point x="331" y="174" type="line"/>
      <point x="377" y="174" type="line"/>
      <point x="377" y="0" type="line"/>
      <point x="567" y="0" type="line"/>
      <point x="567" y="536" type="line"/>
      <point x="274" y="536" type="line" smooth="yes"/>
      <point x="137" y="536"/>
      <point x="58" y="470"/>
      <point x="58" y="350" type="curve" smooth="yes"/>
      <point x="58" y="282"/>
      <point x="89" y="235"/>
      <point x="143" y="210" type="curve"/>
    </contour>
    <contour>
      <point x="377" y="407" type="line"/>
      <point x="377" y="297" type="line"/>
      <point x="311" y="297" type="line" smooth="yes"/>
      <point x="273" y="297"/>
      <point x="252" y="315"/>
      <point x="252" y="352" type="curve" smooth="yes"/>
      <point x="252" y="389"/>
      <point x="273" y="407"/>
      <point x="311" y="407" type="curve" smooth="yes"/>
    </contour>
  </outline>
</glyph>
<glyph name="djecyrillic" format="2">
  <advance height="1000" width="598"/>
  <unicode hex="0452"/>
  <outline>
    <contour>
      <point x="48" y="0" type="line"/>
      <point x="238" y="0" type="line"/>
      <point x="238" y="345" type="line"/>
      <point x="256" y="371"/>
      <point x="280" y="383"/>
      <point x="308" y="383" type="curve" smooth="yes"/>
      <point x="345" y="383"/>
      <point x="368" y="361"/>
      <point x="368" y="317" type="curve" smooth="yes"/>
      <point x="368" y="51" type="line" smooth="yes"/>
      <point x="368" y="-15"/>
      <point x="331" y="-45"/>
      <point x="281" y="-45" type="curve" smooth="yes"/>
      <point x="271" y="-45" type="line"/>
      <point x="271" y="-197" type="line"/>
      <point x="281" y="-197" type="line" smooth="yes"/>
      <point x="447" y="-197"/>
      <point x="558" y="-100"/>
      <point x="558" y="60" type="curve" smooth="yes"/>
      <point x="558" y="360" type="line" smooth="yes"/>
      <point x="558" y="479"/>
      <point x="490" y="548"/>
      <point x="390" y="548" type="curve" smooth="yes"/>
      <point x="323" y="548"/>
      <point x="272" y="517"/>
      <point x="238" y="466" type="curve"/>
      <point x="238" y="740" type="line"/>
      <point x="48" y="740" type="line"/>
    </contour>
    <contour>
      <point x="286" y="574" type="line"/>
      <point x="286" y="674" type="line"/>
      <point x="8" y="674" type="line"/>
      <point x="8" y="574" type="line"/>
    </contour>
  </outline>
</glyph>
<glyph name="gjecyrillic" format="2">
  <advance height="1000" width="467"/>
  <unicode hex="0453"/>
  <outline>
    <contour>
      <point x="48" y="0" type="line"/>
      <point x="238" y="0" type="line"/>
      <point x="238" y="376" type="line"/>
      <point x="443" y="376" type="line"/>
      <point x="443" y="536" type="line"/>
      <point x="48" y="536" type="line"/>
    </contour>
    <contour>
      <point x="305" y="592" type="line"/>
      <point x="427" y="748" type="line"/>
      <point x="261" y="748" type="line"/>
      <point x="160" y="592" type="line"/>
    </contour>
  </outline>
</glyph>
<glyph name="yicyrillic" format="2">
  <advance height="1000" width="286"/>
  <unicode hex="0457"/>
  <outline>
    <contour>
      <point x="48" y="0" type="line"/>
      <point x="238" y="0" type="line"/>
      <point x="238" y="536" type="line"/>
      <point x="48" y="536" type="line"/>
    </contour>
    <contour>
      <point x="-20" y="600" type="line"/>
      <point x="112" y="600" type="line"/>
      <point x="112" y="732" type="line"/>
      <point x="-20" y="732" type="line"/>
    </contour>
    <contour>
      <point x="172" y="600" type="line"/>
      <point x="304" y="600" type="line"/>
      <point x="304" y="732" type="line"/>
      <point x="172" y="732" type="line"/>
    </contour>
  </outline>
</glyph>
<glyph name="ljecyrillic" format="2">
  <advance height="1000" width="920"/>
  <unicode hex="0459"/>
  <outline>
    <contour>
      <point x="79" y="-18" type="curve" smooth="yes"/>
      <point x="137" y="-18"/>
      <point x="186" y="-4"/>
      <point x="225" y="35" type="curve" smooth="yes"/>
      <point x="273" y="83"/>
      <point x="305" y="175"/>
      <point x="305" y="334" type="curve" smooth="yes"/>
      <point x="305" y="376" type="line"/>
      <point x="403" y="376" type="line"/>
      <point x="403" y="0" type="line"/>
      <point x="667" y="0" type="line" smooth="yes"/>
      <point x="811" y="0"/>
      <point x="898" y="70"/>
      <point x="898" y="198" type="curve" smooth="yes"/>
      <point x="898" y="326"/>
      <point x="811" y="392"/>
      <point x="669" y="392" type="curve" smooth="yes"/>
      <point x="593" y="392" type="line"/>
      <point x="593" y="536" type="line"/>
      <point x="127" y="536" type="line"/>
      <point x="127" y="394" type="line" smooth="yes"/>
      <point x="127" y="245"/>
      <point x="112" y="188"/>
      <point x="89" y="165" type="curve" smooth="yes"/>
      <point x="79" y="155"/>
      <point x="66" y="151"/>
      <point x="48" y="151" type="curve" smooth="yes"/>
      <point x="33" y="151"/>
      <point x="23" y="152"/>
      <point x="14" y="155" type="curve"/>
      <point x="14" y="-7" type="line"/>
      <point x="28" y="-13"/>
      <point x="51" y="-18"/>
    </contour>
    <contour>
      <point x="593" y="134" type="line"/>
      <point x="593" y="258" type="line"/>
      <point x="636" y="258" type="line" smooth="yes"/>
      <point x="678" y="258"/>
      <point x="702" y="236"/>
      <point x="702" y="196" type="curve" smooth="yes"/>
      <point x="702" y="156"/>
      <point x="678" y="134"/>
      <point x="636" y="134" type="curve" smooth="yes"/>
    </contour>
  </outline>
</glyph>
<glyph name="njecyrillic" format="2">
  <advance height="1000" width="887"/>
  <unicode hex="045A"/>
  <outline>
    <contour>
      <point x="370" y="0" type="line"/>
      <point x="634" y="0" type="line" smooth="yes"/>
      <point x="778" y="0"/>
      <point x="865" y="70"/>
      <point x="865" y="198" type="curve" smooth="yes"/>
      <point x="865" y="326"/>
      <point x="778" y="392"/>
      <point x="636" y="392" type="curve" smooth="yes"/>
      <point x="560" y="392" type="line"/>
      <point x="560" y="536" type="line"/>
      <point x="370" y="536" type="line"/>
      <point x="370" y="349" type="line"/>
      <point x="238" y="349" type="line"/>
      <point x="238" y="536" type="line"/>
      <point x="48" y="536" type="line"/>
      <point x="48" y="0" type="line"/>
      <point x="238" y="0" type="line"/>
      <point x="238" y="189" type="line"/>
      <point x="370" y="189" type="line"/>
    </contour>
    <contour>
      <point x="560" y="134" type="line"/>
      <point x="560" y="258" type="line"/>
      <point x="603" y="258" type="line" smooth="yes"/>
      <point x="645" y="258"/>
      <point x="669" y="236"/>
      <point x="669" y="196" type="curve" smooth="yes"/>
      <point x="669" y="156"/>
      <point x="645" y="134"/>
      <point x="603" y="134" type="curve" smooth="yes"/>
    </contour>
  </outline>
</glyph>
<glyph name="tshecyrillic" format="2">
  <advance height="1000" width="602"/>
  <unicode hex="045B"/>
  <outline>
    <contour>
      <point x="8" y="574" type="line"/>
      <point x="286" y="574" type="line"/>
      <point x="286" y="674" type="line"/>
      <point x="8" y="674" type="line"/>
    </contour>
    <contour>
      <point x="238" y="0" type="line"/>
      <point x="238" y="345" type="line"/>
      <point x="256" y="371"/>
      <point x="280" y="383"/>
      <point x="308" y="383" type="curve" smooth="yes"/>
      <point x="345" y="383"/>
      <point x="368" y="361"/>
      <point x="368" y="317" type="curve" smooth="yes"/>
      <point x="368" y="0" type="line"/>
      <point x="558" y="0" type="line"/>
      <point x="558" y="360" type="line" smooth="yes"/>
      <point x="558" y="479"/>
      <point x="490" y="548"/>
      <point x="390" y="548" type="curve" smooth="yes"/>
      <point x="323" y="548"/>
      <point x="272" y="517"/>
      <point x="238" y="466" type="curve"/>
      <point x="238" y="740" type="line"/>
      <point x="48" y="740" type="line"/>
      <point x="48" y="0" type="line"/>
    </contour>
  </outline>
</glyph>
<glyph name="ushortcyrillic" format="2">
  <advance height="1000" width="596"/>
  <unicode hex="045E"/>
  <outline>
    <contour>
      <point x="32.0" y="-189.0" type="line" smooth="yes"/>
      <point x="249.0" y="-189.0"/>
      <point x="358.0" y="-122.0"/>
      <point x="434.0" y="96.0" type="curve" smooth="yes"/>
      <point x="588.0" y="536.0" type="line"/>
      <point x="405.0" y="536.0" type="line"/>
      <point x="309.0" y="201.0" type="line"/>
      <point x="213.0" y="536.0" type="line"/>
      <point x="8.0" y="536.0" type="line"/>
      <point x="183.0" y="49.0" type="line"/>
      <point x="212.0" y="34.0" type="line"/>
      <point x="179.0" y="-15.0"/>
      <point x="133.0" y="-29.0"/>
      <point x="32.0" y="-29.0" type="curve" smooth="yes"/>
      <point x="23.0" y="-29.0" type="line"/>
      <point x="23.0" y="-189.0" type="line"/>
    </contour>
    <contour>
      <point x="265" y="740" type="curve"/>
      <point x="145" y="740" type="line"/>
      <point x="145" y="640"/>
      <point x="207" y="584"/>
      <point x="312" y="584" type="curve" smooth="yes"/>
      <point x="417" y="584"/>
      <point x="479" y="640"/>
      <point x="479" y="740" type="curve"/>
      <point x="359" y="740" type="line"/>
      <point x="359" y="694"/>
      <point x="343" y="676"/>
      <point x="312" y="676" type="curve" smooth="yes"/>
      <point x="281" y="676"/>
      <point x="265" y="694"/>
    </contour>
  </outline>
</glyph>
<glyph name="gheupturncyrillic" format="2">
  <advance height="1000" width="467"/>
  <unicode hex="0491"/>
  <outline>
    <contour>
      <point x="443" y="376" type="line"/>
      <point x="443" y="654" type="line"/>
      <point x="257" y="654" type="line"/>
      <point x="257" y="536" type="line"/>
      <point x="48" y="536" type="line"/>
      <point x="48" y="0" type="line"/>
      <point x="238" y="0" type="line"/>
      <point x="238" y="376" type="line"/>
    </contour>
  </outline>
</glyph>
<glyph name="zhedescendercyrillic" format="2">
  <advance height="1000" width="901"/>
  <unicode hex="0497"/>
  <outline>
    <contour>
      <point x="12" y="0" type="line"/>
      <point x="228" y="0" type="line"/>
      <point x="321" y="197" type="line"/>
      <point x="344" y="197" type="line"/>
      <point x="344" y="0" type="line"/>
      <point x="532" y="0" type="line"/>
      <point x="532" y="197" type="line"/>
      <point x="555" y="197" type="line"/>
      <point x="648" y="0" type="line"/>
      <point x="864" y="0" type="line"/>
      <point x="710" y="287" type="line"/>
      <point x="853" y="536" type="line"/>
      <point x="648" y="536" type="line"/>
      <point x="555" y="349" type="line"/>
      <point x="532" y="349" type="line"/>
      <point x="532" y="536" type="line"/>
      <point x="344" y="536" type="line"/>
      <point x="344" y="349" type="line"/>
      <point x="321" y="349" type="line"/>
      <point x="228" y="536" type="line"/>
      <point x="23" y="536" type="line"/>
      <point x="166" y="283" type="line"/>
    </contour>
    <contour>
      <point x="697" y="160" type="line"/>
      <point x="697" y="0" type="line"/>
      <point x="710" y="0" type="line"/>
      <point x="710" y="-118" type="line"/>
      <point x="896" y="-118" type="line"/>
      <point x="896" y="160" type="line"/>
    </contour>
  </outline>
</glyph>
<glyph name="Kadescendercyrillic" format="2">
  <advance height="1000" width="796"/>
  <unicode hex="049A"/>
  <outline>
    <contour>
      <point x="64" y="0" type="line"/>
      <point x="264" y="0" type="line"/>
      <point x="264" y="290" type="line"/>
      <point x="320" y="290" type="line"/>
      <point x="514" y="0" type="line"/>
      <point x="761" y="0" type="line"/>
      <point x="482" y="393" type="line"/>
      <point x="735" y="740" type="line"/>
      <point x="508" y="740" type="line"/>
      <point x="320" y="466" type="line"/>
      <point x="264" y="466" type="line"/>
      <point x="264" y="740" type="line"/>
      <point x="64" y="740" type="line"/>
    </contour>
    <contour>
      <point x="521" y="180" type="line"/>
      <point x="521" y="0" type="line"/>
      <point x="584" y="0" type="line"/>
      <point x="584" y="-133" type="line"/>
      <point x="772" y="-133" type="line"/>
      <point x="772" y="180" type="line"/>
    </contour>
  </outline>
</glyph>
<glyph name="ustraightstrokecyrillic" format="2">
  <advance height="1000" width="596"/>
  <unicode hex="04B1"/>
  <outline>
    <contour>
      <point x="203" y="-197" type="line"/>
      <point x="393" y="-197" type="line"/>
      <point x="393" y="0" type="line"/>
      <point x="588" y="536" type="line"/>
      <point x="405" y="536" type="line"/>
      <point x="309" y="212" type="line"/>
      <point x="213" y="536" type="line"/>
      <point x="8" y="536" type="line"/>
      <point x="203" y="0" type="line"/>
    </contour>
    <contour>
      <point x="533" y="-100" type="line"/>
      <point x="533" y="0" type="line"/>
      <point x="69" y="0" type="line"/>
      <point x="69" y="-100" type="line"/>
    </contour>
  </outline>
</glyph>
<glyph name="Hadescendercyrillic" format="2">
  <advance height="1000" width="815"/>
  <unicode hex="04B2"/>
  <outline>
    <contour>
      <point x="238" y="0" type="line"/>
      <point x="387" y="233" type="line"/>
      <point x="536" y="0" type="line"/>
      <point x="777" y="0" type="line"/>
      <point x="514" y="381" type="line"/>
      <point x="764" y="740" type="line"/>
      <point x="542" y="740" type="line"/>
      <point x="405" y="526" type="line"/>
      <point x="268" y="740" type="line"/>
      <point x="26" y="740" type="line"/>
      <point x="278" y="376" type="line"/>
      <point x="16" y="0" type="line"/>
    </contour>
    <contour>
      <point x="556" y="180" type="line"/>
      <point x="556" y="0" type="line"/>
      <point x="603" y="0" type="line"/>
      <point x="603" y="-133" type="line"/>
      <point x="791" y="-133" type="line"/>
      <point x="791" y="180" type="line"/>
    </contour>
  </outline>
</glyph>
<glyph name="quoteleft" format="2">
  <advance height="1000" width="305"/>
  <unicode hex="2018"/>
  <outline>
    <contour>
      <point x="52" y="389" type="line"/>
      <point x="236" y="389" type="line"/>
      <point x="236" y="506" type="line" smooth="yes"/>
      <point x="236" y="609"/>
      <point x="257" y="668"/>
      <point x="293" y="740" type="curve"/>
      <point x="153" y="777" type="line"/>
      <point x="104" y="730"/>
      <point x="52" y="640"/>
      <point x="52" y="500" type="curve" smooth="yes"/>
    </contour>
  </outline>
</glyph>
<glyph name="quoteright" format="2">
  <advance height="1000" width="300"/>
  <unicode hex="2019"/>
  <outline>
    <contour>
      <point x="139" y="352" type="line"/>
      <point x="188" y="399"/>
      <point x="240" y="490"/>
      <point x="240" y="629" type="curve" smooth="yes"/>
      <point x="240" y="740" type="line"/>
      <point x="60" y="740" type="line"/>
      <point x="60" y="623" type="line" smooth="yes"/>
      <point x="60" y="521"/>
      <point x="40" y="462"/>
      <point x="4" y="389" type="curve"/>
    </contour>
  </outline>
</glyph>
<glyph name="quotedblleft" format="2">
  <advance height="1000" width="559"/>
  <unicode hex="201C"/>
  <outline>
    <contour>
      <point x="28" y="389" type="line"/>
      <point x="212" y="389" type="line"/>
      <point x="212" y="506" type="line" smooth="yes"/>
      <point x="212" y="609"/>
      <point x="233" y="668"/>
      <point x="269" y="740" type="curve"/>
      <point x="129" y="777" type="line"/>
      <point x="80" y="730"/>
      <point x="28" y="640"/>
      <point x="28" y="500" type="curve" smooth="yes"/>
    </contour>
    <contour>
      <point x="287" y="389" type="line"/>
      <point x="471" y="389" type="line"/>
      <point x="471" y="506" type="line" smooth="yes"/>
      <point x="471" y="609"/>
      <point x="491" y="668"/>
      <point x="527" y="740" type="curve"/>
      <point x="388" y="777" type="line"/>
      <point x="338" y="730"/>
      <point x="287" y="640"/>
      <point x="287" y="500" type="curve" smooth="yes"/>
    </contour>
  </outline>
</glyph>
<glyph name="quotedblbase" format="2">
  <advance height="1000" width="561"/>
  <unicode hex="201E"/>
  <outline>
    <contour>
      <point x="151.0" y="-185.0" type="line"/>
      <point x="200.0" y="-138.0"/>
      <point x="252.0" y="-48.0"/>
      <point x="252.0" y="92.0" type="curve" smooth="yes"/>
      <point x="252.0" y="203.0" type="line"/>
      <point x="72.0" y="203.0" type="line"/>
      <point x="72.0" y="86.0" type="line" smooth="yes"/>
      <point x="72.0" y="-17.0"/>
      <point x="52.0" y="-76.0"/>
      <point x="16.0" y="-148.0" type="curve"/>
    </contour>
    <contour>
      <point x="404.0" y="-185.0" type="line"/>
      <point x="453.0" y="-138.0"/>
      <point x="505.0" y="-48.0"/>
      <point x="505.0" y="92.0" type="curve" smooth="yes"/>
      <point x="505.0" y="203.0" type="line"/>
      <point x="325.0" y="203.0" type="line"/>
      <point x="325.0" y="86.0" type="line" smooth="yes"/>
      <point x="325.0" y="-17.0"/>
      <point x="305.0" y="-76.0"/>
      <point x="269.0" y="-148.0" type="curve"/>
    </contour>
  </outline>
</glyph>
<glyph name="Euro" format="2">
  <advance height="1000" width="765"/>
  <unicode hex="20AC"/>
  <outline>
    <contour>
      <point x="32" y="379" type="line"/>
      <point x="460" y="379" type="line"/>
      <point x="460" y="479" type="line"/>
      <point x="32" y="479" type="line"/>
    </contour>
    <contour>
      <point x="32" y="239" type="line"/>
      <point x="462" y="239" type="line"/>
      <point x="462" y="339" type="line"/>
      <point x="32" y="339" type="line"/>
    </contour>
    <contour>
      <point x="497.0" y="-16.0" type="curve" smooth="yes"/>
      <point x="578.0" y="-16.0"/>
      <point x="650.0" y="0.0"/>
      <point x="721.0" y="38.0" type="curve"/>
      <point x="721.0" y="227.0" type="line"/>
      <point x="652.0" y="184.0"/>
      <point x="583.0" y="162.0"/>
      <point x="504.0" y="162.0" type="curve" smooth="yes"/>
      <point x="376.0" y="162.0"/>
      <point x="291.0" y="243.0"/>
      <point x="291.0" y="371.0" type="curve" smooth="yes"/>
      <point x="291.0" y="498.0"/>
      <point x="376.0" y="578.0"/>
      <point x="504.0" y="578.0" type="curve" smooth="yes"/>
      <point x="578.0" y="578.0"/>
      <point x="646.0" y="559.0"/>
      <point x="713.0" y="518.0" type="curve"/>
      <point x="713.0" y="707.0" type="line"/>
      <point x="645.0" y="740.0"/>
      <point x="575.0" y="756.0"/>
      <point x="497.0" y="756.0" type="curve" smooth="yes"/>
      <point x="247.0" y="756.0"/>
      <point x="87.0" y="607.0"/>
      <point x="87.0" y="371.0" type="curve" smooth="yes"/>
      <point x="87.0" y="135.0"/>
      <point x="247.0" y="-16.0"/>
    </contour>
  </outline>
</glyph>
<glyph name="Omega" format="2">
  <advance height="1000" width="778"/>
  <unicode hex="2126"/>
  <outline>
    <contour>
      <point x="55" y="0" type="line"/>
      <point x="355" y="0" type="line"/>
      <point x="355" y="290" type="line"/>
      <point x="288" y="300"/>
      <point x="243" y="352"/>
      <point x="243" y="439" type="curve" smooth="yes"/>
      <point x="243" y="524"/>
      <point x="301" y="580"/>
      <point x="388" y="580" type="curve" smooth="yes"/>
      <point x="476" y="580"/>
      <point x="533" y="522"/>
      <point x="533" y="436" type="curve" smooth="yes"/>
      <point x="533" y="350"/>
      <point x="486" y="297"/>
      <point x="421" y="290" type="curve"/>
      <point x="421" y="0" type="line"/>
      <point x="721" y="0" type="line"/>
      <point x="721" y="170" type="line"/>
      <point x="551" y="170" type="line"/>
      <point x="551" y="193" type="line"/>
      <point x="666" y="229"/>
      <point x="738" y="323"/>
      <point x="738" y="457" type="curve" smooth="yes"/>
      <point x="738" y="632"/>
      <point x="601" y="756"/>
      <point x="388" y="756" type="curve" smooth="yes"/>
      <point x="176" y="756"/>
      <point x="40" y="631"/>
      <point x="40" y="452" type="curve" smooth="yes"/>
      <point x="40" y="325"/>
      <point x="112" y="232"/>
      <point x="225" y="196" type="curve"/>
      <point x="225" y="170" type="line"/>
      <point x="55" y="170" type="line"/>
    </contour>
  </outline>
</glyph>
<glyph name="uni2461" format="2">
  <advance height="1000" width="1000"/>
  <unicode hex="2461"/>
  <outline>
    <contour>
      <point x="353" y="158" type="line"/>
      <point x="665" y="158" type="line"/>
      <point x="665" y="275" type="line"/>
      <point x="504" y="275" type="line"/>
      <point x="616" y="310"/>
      <point x="666" y="363"/>
      <point x="666" y="440" type="curve" smooth="yes"/>
      <point x="666" y="519"/>
      <point x="608" y="573"/>
      <point x="503" y="573" type="curve" smooth="yes"/>
      <point x="450" y="573"/>
      <point x="407" y="565"/>
      <point x="359" y="549" type="curve"/>
      <point x="359" y="422" type="line"/>
      <point x="392" y="444"/>
      <point x="427" y="454"/>
      <point x="462" y="454" type="curve" smooth="yes"/>
      <point x="498" y="454"/>
      <point x="521" y="440"/>
      <point x="521" y="410" type="curve" smooth="yes"/>
      <point x="521" y="374"/>
      <point x="473" y="337"/>
      <point x="353" y="301" type="curve"/>
    </contour>
    <contour>
      <point x="980" y="350" type="curve" smooth="yes"/>
      <point x="980" y="638"/>
      <point x="759" y="830"/>
      <point x="500" y="830" type="curve" smooth="yes"/>
      <point x="241" y="830"/>
      <point x="20" y="638"/>
      <point x="20" y="350" type="curve" smooth="yes"/>
      <point x="20" y="62"/>
      <point x="241" y="-130"/>
      <point x="500" y="-130" type="curve" smooth="yes"/>
      <point x="759" y="-130"/>
      <point x="980" y="62"/>
    </contour>
    <contour>
      <point x="888" y="350" type="curve" smooth="yes"/>
      <point x="888" y="140"/>
      <point x="733" y="-38"/>
      <point x="500" y="-38" type="curve" smooth="yes"/>
      <point x="267" y="-38"/>
      <point x="112" y="140"/>
      <point x="112" y="350" type="curve" smooth="yes"/>
      <point x="112" y="560"/>
      <point x="267" y="738"/>
      <point x="500" y="738" type="curve" smooth="yes"/>
      <point x="733" y="738"/>
      <point x="888" y="560"/>
    </contour>
  </outline>
</glyph>
<glyph name="uni2465" format="2">
  <advance height="1000" width="1000"/>
  <unicode hex="2465"/>
  <outline>
    <contour>
      <point x="484" y="150" type="curve" smooth="yes"/>
      <point x="593" y="150"/>
      <point x="664" y="215"/>
      <point x="664" y="307" type="curve" smooth="yes"/>
      <point x="664" y="386"/>
      <point x="609" y="424"/>
      <point x="529" y="424" type="curve" smooth="yes"/>
      <point x="493" y="424"/>
      <point x="465" y="414"/>
      <point x="444" y="395" type="curve"/>
      <point x="454" y="441"/>
      <point x="481" y="464"/>
      <point x="528" y="464" type="curve" smooth="yes"/>
      <point x="562" y="464"/>
      <point x="601" y="457"/>
      <point x="639" y="445" type="curve"/>
      <point x="639" y="557" type="line"/>
      <point x="595" y="568"/>
      <point x="566" y="573"/>
      <point x="520" y="573.0" type="curve" smooth="yes"/>
      <point x="402" y="573"/>
      <point x="306" y="483"/>
      <point x="306" y="338" type="curve" smooth="yes"/>
      <point x="306" y="224"/>
      <point x="381" y="150"/>
    </contour>
    <contour>
      <point x="487" y="257" type="curve" smooth="yes"/>
      <point x="460" y="257"/>
      <point x="443" y="277"/>
      <point x="443" y="307" type="curve"/>
      <point x="450" y="327"/>
      <point x="467" y="339"/>
      <point x="488" y="339" type="curve" smooth="yes"/>
      <point x="512" y="339"/>
      <point x="529" y="323"/>
      <point x="529" y="301" type="curve" smooth="yes"/>
      <point x="529" y="274"/>
      <point x="514" y="257"/>
    </contour>
    <contour>
      <point x="980" y="350" type="curve" smooth="yes"/>
      <point x="980" y="638"/>
      <point x="759" y="830"/>
      <point x="500" y="830" type="curve" smooth="yes"/>
      <point x="241" y="830"/>
      <point x="20" y="638"/>
      <point x="20" y="350" type="curve" smooth="yes"/>
      <point x="20" y="62"/>
      <point x="241" y="-130"/>
      <point x="500" y="-130" type="curve" smooth="yes"/>
      <point x="759" y="-130"/>
      <point x="980" y="62"/>
    </contour>
    <contour>
      <point x="888" y="350" type="curve" smooth="yes"/>
      <point x="888" y="140"/>
      <point x="733" y="-38"/>
      <point x="500" y="-38" type="curve" smooth="yes"/>
      <point x="267" y="-38"/>
      <point x="112" y="140"/>
      <point x="112" y="350" type="curve" smooth="yes"/>
      <point x="112" y="560"/>
      <point x="267" y="738"/>
      <point x="500" y="738" type="curve" smooth="yes"/>
      <point x="733" y="738"/>
      <point x="888" y="560"/>
    </contour>
  </outline>
</glyph>
<glyph name="uni2474" format="2">
  <advance height="1000" width="1000"/>
  <unicode hex="2474"/>
  <outline>
    <contour>
      <point x="364" y="70" type="line"/>
      <point x="659" y="70" type="line"/>
      <point x="659" y="185" type="line"/>
      <point x="587" y="185" type="line"/>
      <point x="587" y="483" type="line"/>
      <point x="360" y="461" type="line"/>
      <point x="360" y="347" type="line"/>
      <point x="438" y="352" type="line"/>
      <point x="438" y="185" type="line"/>
      <point x="364" y="185" type="line"/>
    </contour>
    <contour>
      <point x="152.0" y="-190.0" type="curve"/>
      <point x="308.0" y="-190.0" type="line"/>
      <point x="212.0" y="-12.0"/>
      <point x="174.0" y="119.0"/>
      <point x="174.0" y="275.0" type="curve" smooth="yes"/>
      <point x="174.0" y="430.0"/>
      <point x="212.0" y="561.0"/>
      <point x="308.0" y="740.0" type="curve"/>
      <point x="152.0" y="740.0" type="line"/>
      <point x="73.0" y="597.0"/>
      <point x="33.0" y="439.0"/>
      <point x="33.0" y="275.0" type="curve" smooth="yes"/>
      <point x="33.0" y="114.0"/>
      <point x="73.0" y="-44.0"/>
    </contour>
    <contour>
      <point x="691.0" y="-190.0" type="curve"/>
      <point x="847.0" y="-190.0" type="line"/>
      <point x="926.0" y="-44.0"/>
      <point x="966.0" y="114.0"/>
      <point x="966.0" y="275.0" type="curve" smooth="yes"/>
      <point x="966.0" y="439.0"/>
      <point x="926.0" y="597.0"/>
      <point x="847.0" y="740.0" type="curve"/>
      <point x="691.0" y="740.0" type="line"/>
      <point x="787.0" y="561.0"/>
      <point x="825.0" y="430.0"/>
      <point x="825.0" y="275.0" type="curve" smooth="yes"/>
      <point x="825.0" y="119.0"/>
      <point x="787.0" y="-12.0"/>
    </contour>
  </outline>
</glyph>
<glyph name="uni2478" format="2">
  <advance height="1000" width="1000"/>
  <unicode hex="2478"/>
  <outline>
    <contour>
      <point x="495" y="62" type="curve" smooth="yes"/>
      <point x="604" y="62"/>
      <point x="665" y="117"/>
      <point x="665" y="199" type="curve" smooth="yes"/>
      <point x="665" y="279"/>
      <point x="614" y="322"/>
      <point x="508" y="322" type="curve" smooth="yes"/>
      <point x="499" y="322"/>
      <point x="482" y="321"/>
      <point x="467" y="318" type="curve"/>
      <point x="469" y="360" type="line"/>
      <point x="643" y="360" type="line"/>
      <point x="643" y="477" type="line"/>
      <point x="366" y="477" type="line"/>
      <point x="353" y="218" type="line"/>
      <point x="388" y="224"/>
      <point x="429" y="230"/>
      <point x="465" y="230" type="curve" smooth="yes"/>
      <point x="497" y="230"/>
      <point x="515" y="221"/>
      <point x="515" y="201" type="curve" smooth="yes"/>
      <point x="515" y="181"/>
      <point x="501" y="170"/>
      <point x="471" y="170" type="curve" smooth="yes"/>
      <point x="428" y="170"/>
      <point x="392" y="177"/>
      <point x="353" y="195" type="curve"/>
      <point x="353" y="83" type="line"/>
      <point x="404" y="69"/>
      <point x="449" y="62"/>
    </contour>
    <contour>
      <point x="152.0" y="-190.0" type="curve"/>
      <point x="308.0" y="-190.0" type="line"/>
      <point x="212.0" y="-12.0"/>
      <point x="174.0" y="119.0"/>
      <point x="174.0" y="275.0" type="curve" smooth="yes"/>
      <point x="174.0" y="430.0"/>
      <point x="212.0" y="561.0"/>
      <point x="308.0" y="740.0" type="curve"/>
      <point x="152.0" y="740.0" type="line"/>
      <point x="73.0" y="597.0"/>
      <point x="33.0" y="439.0"/>
      <point x="33.0" y="275.0" type="curve" smooth="yes"/>
      <point x="33.0" y="114.0"/>
      <point x="73.0" y="-44.0"/>
    </contour>
    <contour>
      <point x="691.0" y="-190.0" type="curve"/>
      <point x="847.0" y="-190.0" type="line"/>
      <point x="926.0" y="-44.0"/>
      <point x="966.0" y="114.0"/>
      <point x="966.0" y="275.0" type="curve" smooth="yes"/>
      <point x="966.0" y="439.0"/>
      <point x="926.0" y="597.0"/>
      <point x="847.0" y="740.0" type="curve"/>
      <point x="691.0" y="740.0" type="line"/>
      <point x="787.0" y="561.0"/>
      <point x="825.0" y="430.0"/>
      <point x="825.0" y="275.0" type="curve" smooth="yes"/>
      <point x="825.0" y="119.0"/>
      <point x="787.0" y="-12.0"/>
    </contour>
  </outline>
</glyph>
<glyph name="uni2488" format="2">
  <advance height="1000" width="1000"/>
  <unicode hex="2488"/>
  <outline>
    <contour>
      <point x="137" y="0" type="line"/>
      <point x="607" y="0" type="line"/>
      <point x="607" y="180" type="line"/>
      <point x="467" y="180" type="line"/>
      <point x="467" y="760" type="line"/>
      <point x="137" y="729" type="line"/>
      <point x="137" y="544" type="line"/>
      <point x="277" y="556" type="line"/>
      <point x="277" y="180" type="line"/>
      <point x="137" y="180" type="line"/>
    </contour>
    <contour>
      <point x="725.0" y="-1.0" type="line"/>
      <point x="905.0" y="-1.0" type="line"/>
      <point x="905.0" y="179.0" type="line"/>
      <point x="725.0" y="179.0" type="line"/>
    </contour>
  </outline>
</glyph>
<glyph name="uni2489" format="2">
  <advance height="1000" width="1000"/>
  <unicode hex="2489"/>
  <outline>
    <contour>
      <point x="124.0" y="0.0" type="line"/>
      <point x="621.0" y="0.0" type="line"/>
      <point x="621.0" y="184.0" type="line"/>
      <point x="325.0" y="184.0" type="line"/>
      <point x="368.0" y="201.0" type="line" smooth="yes"/>
      <point x="509.0" y="252.0"/>
      <point x="621.0" y="364.0"/>
      <point x="621.0" y="512.0" type="curve" smooth="yes"/>
      <point x="621.0" y="663.0"/>
      <point x="515.0" y="752.0"/>
      <point x="340.0" y="752.0" type="curve" smooth="yes"/>
      <point x="267.0" y="752.0"/>
      <point x="186.0" y="733.0"/>
      <point x="132.0" y="702.0" type="curve"/>
      <point x="132.0" y="511.0" type="line"/>
      <point x="187.0" y="551.0"/>
      <point x="252.0" y="571.0"/>
      <point x="317.0" y="571.0" type="curve" smooth="yes"/>
      <point x="379.0" y="571.0"/>
      <point x="427.0" y="538.0"/>
      <point x="427.0" y="473.0" type="curve" smooth="yes"/>
      <point x="427.0" y="385.0"/>
      <point x="320.0" y="299.0"/>
      <point x="185.0" y="253.0" type="curve" smooth="yes"/>
      <point x="124.0" y="233.0" type="line"/>
    </contour>
    <contour>
      <point x="725.0" y="0.0" type="line"/>
      <point x="905.0" y="0.0" type="line"/>
      <point x="905.0" y="180.0" type="line"/>
      <point x="725.0" y="180.0" type="line"/>
    </contour>
  </outline>
</glyph>
<glyph name="uni248B" format="2">
  <advance height="1000" width="1000"/>
  <unicode hex="248B"/>
  <outline>
    <contour>
      <point x="368.0" y="0.0" type="line"/>
      <point x="558.0" y="0.0" type="line"/>
      <point x="558.0" y="152.0" type="line"/>
      <point x="647.0" y="152.0" type="line"/>
      <point x="647.0" y="319.0" type="line"/>
      <point x="558.0" y="319.0" type="line"/>
      <point x="558.0" y="740.0" type="line"/>
      <point x="288.0" y="740.0" type="line"/>
      <point x="52.0" y="290.0" type="line"/>
      <point x="52.0" y="153.0" type="line"/>
      <point x="368.0" y="153.0" type="line"/>
    </contour>
    <contour>
      <point x="241.0" y="319.0" type="line"/>
      <point x="368.0" y="557.0" type="line"/>
      <point x="368.0" y="319.0" type="line"/>
    </contour>
    <contour>
      <point x="725.0" y="0.0" type="line"/>
      <point x="905.0" y="0.0" type="line"/>
      <point x="905.0" y="180.0" type="line"/>
      <point x="725.0" y="180.0" type="line"/>
    </contour>
  </outline>
</glyph>
<glyph name="uni248C" format="2">
  <advance height="1000" width="1000"/>
  <unicode hex="248C"/>
  <outline>
    <contour>
      <point x="366.0" y="-12.0" type="curve" smooth="yes"/>
      <point x="547.0" y="-12.0"/>
      <point x="650.0" y="88.0"/>
      <point x="650.0" y="234.0" type="curve" smooth="yes"/>
      <point x="650.0" y="384.0"/>
      <point x="549.0" y="467.0"/>
      <point x="382.0" y="466.0" type="curve" smooth="yes"/>
      <point x="364.0" y="466.0"/>
      <point x="338.0" y="464.0"/>
      <point x="316.0" y="460.0" type="curve"/>
      <point x="322.0" y="553.0" type="line"/>
      <point x="626.0" y="553.0" type="line"/>
      <point x="626.0" y="740.0" type="line"/>
      <point x="168.0" y="740.0" type="line"/>
      <point x="140.0" y="278.0" type="line"/>
      <point x="206.0" y="293.0"/>
      <point x="277.0" y="301.0"/>
      <point x="345.0" y="301.0" type="curve" smooth="yes"/>
      <point x="410.0" y="301.0"/>
      <point x="448.0" y="275.0"/>
      <point x="448.0" y="230.0" type="curve" smooth="yes"/>
      <point x="448.0" y="185.0"/>
      <point x="412.0" y="160.0"/>
      <point x="353.0" y="160.0" type="curve" smooth="yes"/>
      <point x="282.0" y="160.0"/>
      <point x="203.0" y="174.0"/>
      <point x="139.0" y="207.0" type="curve"/>
      <point x="139.0" y="33.0" type="line"/>
      <point x="202.0" y="4.0"/>
      <point x="277.0" y="-12.0"/>
    </contour>
    <contour>
      <point x="715.0" y="0.0" type="line"/>
      <point x="895.0" y="0.0" type="line"/>
      <point x="895.0" y="180.0" type="line"/>
      <point x="715.0" y="180.0" type="line"/>
    </contour>
  </outline>
</glyph>
<glyph name="uni248D" format="2">
  <advance height="1000" width="1000"/>
  <unicode hex="248D"/>
  <outline>
    <contour>
      <point x="366.0" y="-14.0" type="curve" smooth="yes"/>
      <point x="527.0" y="-14.0"/>
      <point x="645.0" y="80.0"/>
      <point x="645.0" y="260.0" type="curve" smooth="yes"/>
      <point x="645.0" y="412.0"/>
      <point x="550.0" y="497.0"/>
      <point x="412.0" y="497.0" type="curve" smooth="yes"/>
      <point x="354.0" y="497.0"/>
      <point x="309.0" y="481.0"/>
      <point x="279.0" y="446.0" type="curve"/>
      <point x="301.0" y="540.0"/>
      <point x="354.0" y="588.0"/>
      <point x="432.0" y="588.0" type="curve" smooth="yes"/>
      <point x="489.0" y="588.0"/>
      <point x="552.0" y="574.0"/>
      <point x="606.0" y="549.0" type="curve"/>
      <point x="606.0" y="721.0" type="line"/>
      <point x="544.0" y="743.0"/>
      <point x="474.0" y="754.0"/>
      <point x="412.0" y="754.0" type="curve" smooth="yes"/>
      <point x="211.0" y="754.0"/>
      <point x="75.0" y="591.0"/>
      <point x="75.0" y="350.0" type="curve" smooth="yes"/>
      <point x="75.0" y="113.0"/>
      <point x="187.0" y="-14.0"/>
    </contour>
    <contour>
      <point x="363.0" y="156.0" type="curve" smooth="yes"/>
      <point x="310.0" y="156.0"/>
      <point x="276.0" y="195.0"/>
      <point x="275.0" y="269.0" type="curve" smooth="yes"/>
      <point x="289.0" y="314.0"/>
      <point x="317.0" y="344.0"/>
      <point x="367.0" y="344.0" type="curve" smooth="yes"/>
      <point x="418.0" y="344.0"/>
      <point x="451.0" y="307.0"/>
      <point x="451.0" y="250.0" type="curve" smooth="yes"/>
      <point x="451.0" y="193.0"/>
      <point x="416.0" y="156.0"/>
    </contour>
    <contour>
      <point x="725.0" y="0.0" type="line"/>
      <point x="905.0" y="0.0" type="line"/>
      <point x="905.0" y="180.0" type="line"/>
      <point x="725.0" y="180.0" type="line"/>
    </contour>
  </outline>
</glyph>
<glyph name="uni249C" format="2">
  <advance height="1000" width="1000"/>
  <unicode hex="249C"/>
  <outline>
    <contour>
      <point x="405" y="-10" type="curve" smooth="yes"/>
      <point x="455" y="-10"/>
      <point x="490" y="19"/>
      <point x="515" y="66" type="curve"/>
      <point x="523" y="0" type="line"/>
      <point x="700" y="0" type="line"/>
      <point x="700" y="365" type="line" smooth="yes"/>
      <point x="700" y="485"/>
      <point x="627" y="546"/>
      <point x="486" y="546" type="curve" smooth="yes"/>
      <point x="426" y="546"/>
      <point x="367" y="530"/>
      <point x="314" y="508" type="curve"/>
      <point x="314" y="360" type="line"/>
      <point x="358" y="387"/>
      <point x="405" y="403"/>
      <point x="454" y="403" type="curve" smooth="yes"/>
      <point x="494" y="403"/>
      <point x="514" y="385"/>
      <point x="514" y="353" type="curve" smooth="yes"/>
      <point x="514" y="338" type="line"/>
      <point x="455" y="323" type="line" smooth="yes"/>
      <point x="340" y="294"/>
      <point x="282" y="220"/>
      <point x="282" y="131" type="curve" smooth="yes"/>
      <point x="282" y="55"/>
      <point x="326" y="-10"/>
    </contour>
    <contour>
      <point x="487" y="133" type="curve" smooth="yes"/>
      <point x="465" y="133"/>
      <point x="451" y="156"/>
      <point x="451" y="176" type="curve" smooth="yes"/>
      <point x="451" y="208"/>
      <point x="472" y="228"/>
      <point x="499" y="235" type="curve" smooth="yes"/>
      <point x="514" y="239" type="line"/>
      <point x="514" y="143" type="line"/>
      <point x="506" y="136"/>
      <point x="497" y="133"/>
    </contour>
    <contour>
      <point x="152.0" y="-190.0" type="curve"/>
      <point x="308.0" y="-190.0" type="line"/>
      <point x="212.0" y="-12.0"/>
      <point x="174.0" y="119.0"/>
      <point x="174.0" y="275.0" type="curve" smooth="yes"/>
      <point x="174.0" y="430.0"/>
      <point x="212.0" y="561.0"/>
      <point x="308.0" y="740.0" type="curve"/>
      <point x="152.0" y="740.0" type="line"/>
      <point x="73.0" y="597.0"/>
      <point x="33.0" y="439.0"/>
      <point x="33.0" y="275.0" type="curve" smooth="yes"/>
      <point x="33.0" y="114.0"/>
      <point x="73.0" y="-44.0"/>
    </contour>
    <contour>
      <point x="691.0" y="-190.0" type="curve"/>
      <point x="847.0" y="-190.0" type="line"/>
      <point x="926.0" y="-44.0"/>
      <point x="966.0" y="114.0"/>
      <point x="966.0" y="275.0" type="curve" smooth="yes"/>
      <point x="966.0" y="439.0"/>
      <point x="926.0" y="597.0"/>
      <point x="847.0" y="740.0" type="curve"/>
      <point x="691.0" y="740.0" type="line"/>
      <point x="787.0" y="561.0"/>
      <point x="825.0" y="430.0"/>
      <point x="825.0" y="275.0" type="curve" smooth="yes"/>
      <point x="825.0" y="119.0"/>
      <point x="787.0" y="-12.0"/>
    </contour>
  </outline>
</glyph>
<glyph name="uni249D" format="2">
  <advance height="1000" width="1000"/>
  <unicode hex="249D"/>
  <outline>
    <contour>
      <point x="488" y="-10" type="curve" smooth="yes"/>
      <point x="647" y="-10"/>
      <point x="734" y="107"/>
      <point x="734" y="278" type="curve" smooth="yes"/>
      <point x="734" y="463"/>
      <point x="680" y="546"/>
      <point x="578" y="546" type="curve" smooth="yes"/>
      <point x="532" y="546"/>
      <point x="497" y="523"/>
      <point x="477" y="494" type="curve"/>
      <point x="477" y="740" type="line"/>
      <point x="307" y="740" type="line"/>
      <point x="307" y="18" type="line"/>
      <point x="368" y="-1"/>
      <point x="427" y="-10"/>
    </contour>
    <contour>
      <point x="502" y="132" type="curve" smooth="yes"/>
      <point x="491" y="132"/>
      <point x="482" y="134"/>
      <point x="477" y="136" type="curve"/>
      <point x="477" y="379" type="line"/>
      <point x="484" y="384"/>
      <point x="499" y="387"/>
      <point x="506" y="387" type="curve" smooth="yes"/>
      <point x="545" y="387"/>
      <point x="566" y="347"/>
      <point x="566" y="268" type="curve" smooth="yes"/>
      <point x="566" y="177"/>
      <point x="543" y="132"/>
    </contour>
    <contour>
      <point x="152.0" y="-190.0" type="curve"/>
      <point x="308.0" y="-190.0" type="line"/>
      <point x="212.0" y="-12.0"/>
      <point x="174.0" y="119.0"/>
      <point x="174.0" y="275.0" type="curve" smooth="yes"/>
      <point x="174.0" y="430.0"/>
      <point x="212.0" y="561.0"/>
      <point x="308.0" y="740.0" type="curve"/>
      <point x="152.0" y="740.0" type="line"/>
      <point x="73.0" y="597.0"/>
      <point x="33.0" y="439.0"/>
      <point x="33.0" y="275.0" type="curve" smooth="yes"/>
      <point x="33.0" y="114.0"/>
      <point x="73.0" y="-44.0"/>
    </contour>
    <contour>
      <point x="691.0" y="-190.0" type="curve"/>
      <point x="847.0" y="-190.0" type="line"/>
      <point x="926.0" y="-44.0"/>
      <point x="966.0" y="114.0"/>
      <point x="966.0" y="275.0" type="curve" smooth="yes"/>
      <point x="966.0" y="439.0"/>
      <point x="926.0" y="597.0"/>
      <point x="847.0" y="740.0" type="curve"/>
      <point x="691.0" y="740.0" type="line"/>
      <point x="787.0" y="561.0"/>
      <point x="825.0" y="430.0"/>
      <point x="825.0" y="275.0" type="curve" smooth="yes"/>
      <point x="825.0" y="119.0"/>
      <point x="787.0" y="-12.0"/>
    </contour>
  </outline>
</glyph>
<glyph name="uni249E" format="2">
  <advance height="1000" width="1000"/>
  <unicode hex="249E"/>
  <outline>
    <contour>
      <point x="529" y="-12" type="curve" smooth="yes"/>
      <point x="590" y="-12"/>
      <point x="647" y="4"/>
      <point x="697" y="29" type="curve"/>
      <point x="697" y="205" type="line"/>
      <point x="656" y="177"/>
      <point x="609" y="159"/>
      <point x="564" y="159" type="curve" smooth="yes"/>
      <point x="493" y="159"/>
      <point x="448" y="197"/>
      <point x="448" y="270" type="curve" smooth="yes"/>
      <point x="448" y="341"/>
      <point x="491" y="377"/>
      <point x="560" y="377" type="curve" smooth="yes"/>
      <point x="605" y="377"/>
      <point x="650" y="361"/>
      <point x="692" y="338" type="curve"/>
      <point x="692" y="514" type="line"/>
      <point x="644" y="536"/>
      <point x="589" y="548"/>
      <point x="529" y="548" type="curve" smooth="yes"/>
      <point x="359" y="548"/>
      <point x="248" y="442"/>
      <point x="248" y="264" type="curve" smooth="yes"/>
      <point x="248" y="92"/>
      <point x="360" y="-12"/>
    </contour>
    <contour>
      <point x="152.0" y="-190.0" type="curve"/>
      <point x="308.0" y="-190.0" type="line"/>
      <point x="212.0" y="-12.0"/>
      <point x="174.0" y="119.0"/>
      <point x="174.0" y="275.0" type="curve" smooth="yes"/>
      <point x="174.0" y="430.0"/>
      <point x="212.0" y="561.0"/>
      <point x="308.0" y="740.0" type="curve"/>
      <point x="152.0" y="740.0" type="line"/>
      <point x="73.0" y="597.0"/>
      <point x="33.0" y="439.0"/>
      <point x="33.0" y="275.0" type="curve" smooth="yes"/>
      <point x="33.0" y="114.0"/>
      <point x="73.0" y="-44.0"/>
    </contour>
    <contour>
      <point x="691.0" y="-190.0" type="curve"/>
      <point x="847.0" y="-190.0" type="line"/>
      <point x="926.0" y="-44.0"/>
      <point x="966.0" y="114.0"/>
      <point x="966.0" y="275.0" type="curve" smooth="yes"/>
      <point x="966.0" y="439.0"/>
      <point x="926.0" y="597.0"/>
      <point x="847.0" y="740.0" type="curve"/>
      <point x="691.0" y="740.0" type="line"/>
      <point x="787.0" y="561.0"/>
      <point x="825.0" y="430.0"/>
      <point x="825.0" y="275.0" type="curve" smooth="yes"/>
      <point x="825.0" y="119.0"/>
      <point x="787.0" y="-12.0"/>
    </contour>
  </outline>
</glyph>
<glyph name="uni249F" format="2">
  <advance height="1000" width="1000"/>
  <unicode hex="249F"/>
  <outline>
    <contour>
      <point x="420" y="-3" type="curve" smooth="yes"/>
      <point x="459" y="-3"/>
      <point x="490" y="20"/>
      <point x="509" y="60" type="curve"/>
      <point x="517" y="0" type="line"/>
      <point x="673" y="0" type="line"/>
      <point x="673" y="740" type="line"/>
      <point x="509" y="740" type="line"/>
      <point x="509" y="533" type="line"/>
      <point x="493" y="540"/>
      <point x="469" y="544"/>
      <point x="449" y="544" type="curve" smooth="yes"/>
      <point x="331" y="544"/>
      <point x="273" y="429"/>
      <point x="273" y="255" type="curve" smooth="yes"/>
      <point x="273" y="87"/>
      <point x="326" y="-3"/>
    </contour>
    <contour>
      <point x="483" y="150" type="curve" smooth="yes"/>
      <point x="455" y="150"/>
      <point x="441" y="176"/>
      <point x="441" y="264" type="curve" smooth="yes"/>
      <point x="441" y="374"/>
      <point x="459" y="412"/>
      <point x="486" y="412" type="curve" smooth="yes"/>
      <point x="494" y="412"/>
      <point x="501" y="411"/>
      <point x="509" y="408" type="curve"/>
      <point x="509" y="160" type="line"/>
      <point x="504" y="153"/>
      <point x="492" y="150"/>
    </contour>
    <contour>
      <point x="152.0" y="-190.0" type="curve"/>
      <point x="308.0" y="-190.0" type="line"/>
      <point x="212.0" y="-12.0"/>
      <point x="174.0" y="119.0"/>
      <point x="174.0" y="275.0" type="curve" smooth="yes"/>
      <point x="174.0" y="430.0"/>
      <point x="212.0" y="561.0"/>
      <point x="308.0" y="740.0" type="curve"/>
      <point x="152.0" y="740.0" type="line"/>
      <point x="73.0" y="597.0"/>
      <point x="33.0" y="439.0"/>
      <point x="33.0" y="275.0" type="curve" smooth="yes"/>
      <point x="33.0" y="114.0"/>
      <point x="73.0" y="-44.0"/>
    </contour>
    <contour>
      <point x="691.0" y="-190.0" type="curve"/>
      <point x="847.0" y="-190.0" type="line"/>
      <point x="926.0" y="-44.0"/>
      <point x="966.0" y="114.0"/>
      <point x="966.0" y="275.0" type="curve" smooth="yes"/>
      <point x="966.0" y="439.0"/>
      <point x="926.0" y="597.0"/>
      <point x="847.0" y="740.0" type="curve"/>
      <point x="691.0" y="740.0" type="line"/>
      <point x="787.0" y="561.0"/>
      <point x="825.0" y="430.0"/>
      <point x="825.0" y="275.0" type="curve" smooth="yes"/>
      <point x="825.0" y="119.0"/>
      <point x="787.0" y="-12.0"/>
    </contour>
  </outline>
</glyph>
<glyph name="uni24A0" format="2">
  <advance height="1000" width="1000"/>
  <unicode hex="24A0"/>
  <outline>
    <contour>
      <point x="501" y="-10" type="curve" smooth="yes"/>
      <point x="564" y="-10"/>
      <point x="618" y="-2"/>
      <point x="669" y="23" type="curve"/>
      <point x="669" y="175" type="line"/>
      <point x="627" y="152"/>
      <point x="584" y="140"/>
      <point x="541" y="140" type="curve" smooth="yes"/>
      <point x="490" y="140"/>
      <point x="465" y="168"/>
      <point x="461" y="223" type="curve"/>
      <point x="461" y="224" type="line"/>
      <point x="691" y="224" type="line"/>
      <point x="691" y="244" type="line" smooth="yes"/>
      <point x="691" y="440"/>
      <point x="614" y="546"/>
      <point x="490" y="546" type="curve" smooth="yes"/>
      <point x="359" y="546"/>
      <point x="284" y="452"/>
      <point x="284" y="269" type="curve" smooth="yes"/>
      <point x="284" y="85"/>
      <point x="369" y="-10"/>
    </contour>
    <contour>
      <point x="493" y="420" type="curve" smooth="yes"/>
      <point x="511" y="420"/>
      <point x="525" y="394"/>
      <point x="525" y="326" type="curve"/>
      <point x="460" y="326" type="line"/>
      <point x="462" y="394"/>
      <point x="470" y="420"/>
    </contour>
    <contour>
      <point x="152.0" y="-190.0" type="curve"/>
      <point x="308.0" y="-190.0" type="line"/>
      <point x="212.0" y="-12.0"/>
      <point x="174.0" y="119.0"/>
      <point x="174.0" y="275.0" type="curve" smooth="yes"/>
      <point x="174.0" y="430.0"/>
      <point x="212.0" y="561.0"/>
      <point x="308.0" y="740.0" type="curve"/>
      <point x="152.0" y="740.0" type="line"/>
      <point x="73.0" y="597.0"/>
      <point x="33.0" y="439.0"/>
      <point x="33.0" y="275.0" type="curve" smooth="yes"/>
      <point x="33.0" y="114.0"/>
      <point x="73.0" y="-44.0"/>
    </contour>
    <contour>
      <point x="691.0" y="-190.0" type="curve"/>
      <point x="847.0" y="-190.0" type="line"/>
      <point x="926.0" y="-44.0"/>
      <point x="966.0" y="114.0"/>
      <point x="966.0" y="275.0" type="curve" smooth="yes"/>
      <point x="966.0" y="439.0"/>
      <point x="926.0" y="597.0"/>
      <point x="847.0" y="740.0" type="curve"/>
      <point x="691.0" y="740.0" type="line"/>
      <point x="787.0" y="561.0"/>
      <point x="825.0" y="430.0"/>
      <point x="825.0" y="275.0" type="curve" smooth="yes"/>
      <point x="825.0" y="119.0"/>
      <point x="787.0" y="-12.0"/>
    </contour>
  </outline>
</glyph>
<glyph name="uni24A1" format="2">
  <advance height="1000" width="1000"/>
  <unicode hex="24A1"/>
  <outline>
    <contour>
      <point x="371" y="0" type="line"/>
      <point x="541" y="0" type="line"/>
      <point x="541" y="386" type="line"/>
      <point x="625" y="386" type="line"/>
      <point x="625" y="536" type="line"/>
      <point x="541" y="536" type="line"/>
      <point x="541" y="554" type="line" smooth="yes"/>
      <point x="541.0" y="580"/>
      <point x="559.0" y="597.0"/>
      <point x="592" y="597" type="curve" smooth="yes"/>
      <point x="603" y="597"/>
      <point x="622" y="596.0"/>
      <point x="636" y="591" type="curve"/>
      <point x="636" y="741" type="line"/>
      <point x="620" y="747.0"/>
      <point x="588" y="750.0"/>
      <point x="567" y="750" type="curve" smooth="yes"/>
      <point x="449" y="750.0"/>
      <point x="371.0" y="672.0"/>
      <point x="371" y="544" type="curve" smooth="yes"/>
      <point x="371" y="536" type="line"/>
      <point x="306" y="536" type="line"/>
      <point x="306" y="386" type="line"/>
      <point x="371" y="386" type="line"/>
    </contour>
    <contour>
      <point x="152.0" y="-190.0" type="curve"/>
      <point x="308.0" y="-190.0" type="line"/>
      <point x="212.0" y="-12.0"/>
      <point x="174.0" y="119.0"/>
      <point x="174.0" y="275.0" type="curve" smooth="yes"/>
      <point x="174.0" y="430.0"/>
      <point x="212.0" y="561.0"/>
      <point x="308.0" y="740.0" type="curve"/>
      <point x="152.0" y="740.0" type="line"/>
      <point x="73.0" y="597.0"/>
      <point x="33.0" y="439.0"/>
      <point x="33.0" y="275.0" type="curve" smooth="yes"/>
      <point x="33.0" y="114.0"/>
      <point x="73.0" y="-44.0"/>
    </contour>
    <contour>
      <point x="691.0" y="-190.0" type="curve"/>
      <point x="847.0" y="-190.0" type="line"/>
      <point x="926.0" y="-44.0"/>
      <point x="966.0" y="114.0"/>
      <point x="966.0" y="275.0" type="curve" smooth="yes"/>
      <point x="966.0" y="439.0"/>
      <point x="926.0" y="597.0"/>
      <point x="847.0" y="740.0" type="curve"/>
      <point x="691.0" y="740.0" type="line"/>
      <point x="787.0" y="561.0"/>
      <point x="825.0" y="430.0"/>
      <point x="825.0" y="275.0" type="curve" smooth="yes"/>
      <point x="825.0" y="119.0"/>
      <point x="787.0" y="-12.0"/>
    </contour>
  </outline>
</glyph>
<glyph name="uni24B6" format="2">
  <advance height="1000" width="1000"/>
  <unicode hex="24B6"/>
  <outline>
    <contour>
      <point x="604" y="100" type="line"/>
      <point x="766" y="100" type="line"/>
      <point x="566" y="618" type="line"/>
      <point x="429" y="618" type="line"/>
      <point x="229" y="100" type="line"/>
      <point x="373" y="100" type="line"/>
      <point x="487" y="448" type="line"/>
    </contour>
    <contour>
      <point x="359" y="192" type="line"/>
      <point x="611" y="192" type="line"/>
      <point x="611" y="296" type="line"/>
      <point x="359" y="296" type="line"/>
    </contour>
    <contour>
      <point x="980" y="350" type="curve" smooth="yes"/>
      <point x="980" y="638"/>
      <point x="759" y="830"/>
      <point x="500" y="830" type="curve" smooth="yes"/>
      <point x="241" y="830"/>
      <point x="20" y="638"/>
      <point x="20" y="350" type="curve" smooth="yes"/>
      <point x="20" y="62"/>
      <point x="241" y="-130"/>
      <point x="500" y="-130" type="curve" smooth="yes"/>
      <point x="759" y="-130"/>
      <point x="980" y="62"/>
    </contour>
    <contour>
      <point x="888" y="350" type="curve" smooth="yes"/>
      <point x="888" y="140"/>
      <point x="733" y="-38"/>
      <point x="500" y="-38" type="curve" smooth="yes"/>
      <point x="267" y="-38"/>
      <point x="112" y="140"/>
      <point x="112" y="350" type="curve" smooth="yes"/>
      <point x="112" y="560"/>
      <point x="267" y="738"/>
      <point x="500" y="738" type="curve" smooth="yes"/>
      <point x="733" y="738"/>
      <point x="888" y="560"/>
    </contour>
  </outline>
</glyph>
<glyph name="uni24B7" format="2">
  <advance height="1000" width="1000"/>
  <unicode hex="24B7"/>
  <outline>
    <contour>
      <point x="541" y="100.0" type="line" smooth="yes"/>
      <point x="653" y="100"/>
      <point x="730" y="149"/>
      <point x="730" y="240" type="curve" smooth="yes"/>
      <point x="730" y="301"/>
      <point x="694" y="339"/>
      <point x="630" y="355" type="curve"/>
      <point x="683" y="374"/>
      <point x="714" y="414"/>
      <point x="714" y="473" type="curve" smooth="yes"/>
      <point x="714" y="557"/>
      <point x="655.0" y="600.0"/>
      <point x="546" y="600" type="curve" smooth="yes"/>
      <point x="318" y="600" type="line"/>
      <point x="318" y="100.0" type="line"/>
    </contour>
    <contour>
      <point x="472" y="399" type="line"/>
      <point x="472" y="501" type="line"/>
      <point x="515" y="501" type="line" smooth="yes"/>
      <point x="546" y="501"/>
      <point x="568" y="483"/>
      <point x="568" y="449" type="curve" smooth="yes"/>
      <point x="568" y="418"/>
      <point x="546" y="399"/>
      <point x="515" y="399" type="curve" smooth="yes"/>
    </contour>
    <contour>
      <point x="472" y="205" type="line"/>
      <point x="472" y="308" type="line"/>
      <point x="526" y="308" type="line" smooth="yes"/>
      <point x="559" y="308"/>
      <point x="583" y="290"/>
      <point x="583" y="258" type="curve" smooth="yes"/>
      <point x="583" y="224"/>
      <point x="559" y="205"/>
      <point x="526" y="205" type="curve" smooth="yes"/>
    </contour>
    <contour>
      <point x="980" y="350" type="curve" smooth="yes"/>
      <point x="980" y="638"/>
      <point x="759" y="830"/>
      <point x="500" y="830" type="curve" smooth="yes"/>
      <point x="241" y="830"/>
      <point x="20" y="638"/>
      <point x="20" y="350" type="curve" smooth="yes"/>
      <point x="20" y="62"/>
      <point x="241" y="-130"/>
      <point x="500" y="-130" type="curve" smooth="yes"/>
      <point x="759" y="-130"/>
      <point x="980" y="62"/>
    </contour>
    <contour>
      <point x="888" y="350" type="curve" smooth="yes"/>
      <point x="888" y="140"/>
      <point x="733" y="-38"/>
      <point x="500" y="-38" type="curve" smooth="yes"/>
      <point x="267" y="-38"/>
      <point x="112" y="140"/>
      <point x="112" y="350" type="curve" smooth="yes"/>
      <point x="112" y="560"/>
      <point x="267" y="738"/>
      <point x="500" y="738" type="curve" smooth="yes"/>
      <point x="733" y="738"/>
      <point x="888" y="560"/>
    </contour>
  </outline>
</glyph>
<glyph name="uni24BA" format="2">
  <advance height="1000" width="1000"/>
  <unicode hex="24BA"/>
  <outline>
    <contour>
      <point x="320" y="100" type="line"/>
      <point x="686" y="100" type="line"/>
      <point x="686" y="222" type="line"/>
      <point x="490" y="222" type="line"/>
      <point x="490" y="297" type="line"/>
      <point x="666" y="297" type="line"/>
      <point x="666" y="409" type="line"/>
      <point x="490" y="409" type="line"/>
      <point x="490" y="478" type="line"/>
      <point x="678" y="478" type="line"/>
      <point x="678" y="600" type="line"/>
      <point x="320" y="600" type="line"/>
    </contour>
    <contour>
      <point x="980" y="350" type="curve" smooth="yes"/>
      <point x="980" y="638"/>
      <point x="759" y="830"/>
      <point x="500" y="830" type="curve" smooth="yes"/>
      <point x="241" y="830"/>
      <point x="20" y="638"/>
      <point x="20" y="350" type="curve" smooth="yes"/>
      <point x="20" y="62"/>
      <point x="241" y="-130"/>
      <point x="500" y="-130" type="curve" smooth="yes"/>
      <point x="759" y="-130"/>
      <point x="980" y="62"/>
    </contour>
    <contour>
      <point x="888" y="350" type="curve" smooth="yes"/>
      <point x="888" y="140"/>
      <point x="733" y="-38"/>
      <point x="500" y="-38" type="curve" smooth="yes"/>
      <point x="267" y="-38"/>
      <point x="112" y="140"/>
      <point x="112" y="350" type="curve" smooth="yes"/>
      <point x="112" y="560"/>
      <point x="267" y="738"/>
      <point x="500" y="738" type="curve" smooth="yes"/>
      <point x="733" y="738"/>
      <point x="888" y="560"/>
    </contour>
  </outline>
</glyph>
<glyph name="uni2778" format="2">
  <advance height="1000" width="1000"/>
  <unicode hex="2778"/>
  <outline>
    <contour>
      <point x="495" y="150.0" type="curve" smooth="yes"/>
      <point x="446" y="150"/>
      <point x="398" y="154"/>
      <point x="345" y="169" type="curve"/>
      <point x="345" y="292" type="line"/>
      <point x="384" y="274"/>
      <point x="420" y="266"/>
      <point x="461" y="266" type="curve" smooth="yes"/>
      <point x="491" y="266"/>
      <point x="507" y="273"/>
      <point x="507" y="289" type="curve" smooth="yes"/>
      <point x="507" y="307"/>
      <point x="486" y="315"/>
      <point x="445" y="315" type="curve" smooth="yes"/>
      <point x="409" y="315" type="line"/>
      <point x="409" y="409" type="line"/>
      <point x="439" y="409" type="line" smooth="yes"/>
      <point x="479" y="409"/>
      <point x="498" y="417"/>
      <point x="498" y="433" type="curve" smooth="yes"/>
      <point x="498" y="450"/>
      <point x="483" y="458"/>
      <point x="456" y="458" type="curve" smooth="yes"/>
      <point x="420" y="458"/>
      <point x="388" y="451"/>
      <point x="354" y="435" type="curve"/>
      <point x="354" y="555" type="line"/>
      <point x="401" y="566"/>
      <point x="445" y="573"/>
      <point x="493" y="573" type="curve" smooth="yes"/>
      <point x="594" y="573"/>
      <point x="650" y="530"/>
      <point x="650" y="466" type="curve" smooth="yes"/>
      <point x="650" y="415"/>
      <point x="619" y="377"/>
      <point x="564" y="365" type="curve"/>
      <point x="625" y="354"/>
      <point x="658" y="315"/>
      <point x="658" y="268" type="curve" smooth="yes"/>
      <point x="658" y="197"/>
      <point x="601" y="150"/>
    </contour>
    <contour>
      <point x="988" y="360" type="curve" smooth="yes"/>
      <point x="988" y="653"/>
      <point x="764" y="848"/>
      <point x="500" y="848" type="curve" smooth="yes"/>
      <point x="236" y="848"/>
      <point x="12" y="653"/>
      <point x="12" y="360" type="curve" smooth="yes"/>
      <point x="12" y="67"/>
      <point x="236" y="-128"/>
      <point x="500" y="-128" type="curve" smooth="yes"/>
      <point x="764" y="-128"/>
      <point x="988" y="67"/>
    </contour>
  </outline>
</glyph>
<glyph name="uni277B" format="2">
  <advance height="1000" width="1000"/>
  <unicode hex="277B"/>
  <outline>
    <contour>
      <point x="484" y="150" type="curve" smooth="yes"/>
      <point x="381" y="150"/>
      <point x="306" y="224"/>
      <point x="306" y="338" type="curve" smooth="yes"/>
      <point x="306" y="483"/>
      <point x="402" y="573"/>
      <point x="520" y="573.0" type="curve" smooth="yes"/>
      <point x="566" y="573"/>
      <point x="595" y="568"/>
      <point x="639" y="557" type="curve"/>
      <point x="639" y="445" type="line"/>
      <point x="601" y="457"/>
      <point x="562" y="464"/>
      <point x="528" y="464" type="curve" smooth="yes"/>
      <point x="481" y="464"/>
      <point x="454" y="441"/>
      <point x="444" y="395" type="curve"/>
      <point x="465" y="414"/>
      <point x="493" y="424"/>
      <point x="529" y="424" type="curve" smooth="yes"/>
      <point x="609" y="424"/>
      <point x="664" y="386"/>
      <point x="664" y="307" type="curve" smooth="yes"/>
      <point x="664" y="215"/>
      <point x="593" y="150"/>
    </contour>
    <contour>
      <point x="487" y="257" type="curve" smooth="yes"/>
      <point x="514" y="257"/>
      <point x="529" y="274"/>
      <point x="529" y="301" type="curve" smooth="yes"/>
      <point x="529" y="323"/>
      <point x="512" y="339"/>
      <point x="488" y="339" type="curve" smooth="yes"/>
      <point x="467" y="339"/>
      <point x="450" y="327"/>
      <point x="443" y="307" type="curve"/>
      <point x="443" y="277"/>
      <point x="460" y="257"/>
    </contour>
    <contour>
      <point x="988" y="360" type="curve" smooth="yes"/>
      <point x="988" y="653"/>
      <point x="764" y="848"/>
      <point x="500" y="848" type="curve" smooth="yes"/>
      <point x="236" y="848"/>
      <point x="12" y="653"/>
      <point x="12" y="360" type="curve" smooth="yes"/>
      <point x="12" y="67"/>
      <point x="236" y="-128"/>
      <point x="500" y="-128" type="curve" smooth="yes"/>
      <point x="764" y="-128"/>
      <point x="988" y="67"/>
    </contour>
  </outline>
</glyph>
<glyph name="five.tab" format="2">
  <advance width="630"/>
  <outline>
    <contour>
      <point x="288.5" y="-12.0" type="curve" smooth="yes"/>
      <point x="469.5" y="-12.0"/>
      <point x="572.5" y="88.0"/>
      <point x="572.5" y="234.0" type="curve" smooth="yes"/>
      <point x="572.5" y="384.0"/>
      <point x="471.5" y="467.0"/>
      <point x="304.5" y="466.0" type="curve" smooth="yes"/>
      <point x="286.5" y="466.0"/>
      <point x="260.5" y="464.0"/>
      <point x="238.5" y="460.0" type="curve"/>
      <point x="244.5" y="553.0" type="line"/>
      <point x="548.5" y="553.0" type="line"/>
      <point x="548.5" y="740.0" type="line"/>
      <point x="90.5" y="740.0" type="line"/>
      <point x="62.5" y="278.0" type="line"/>
      <point x="128.5" y="293.0"/>
      <point x="199.5" y="301.0"/>
      <point x="267.5" y="301.0" type="curve" smooth="yes"/>
      <point x="332.5" y="301.0"/>
      <point x="370.5" y="275.0"/>
      <point x="370.5" y="230.0" type="curve" smooth="yes"/>
      <point x="370.5" y="185.0"/>
      <point x="334.5" y="160.0"/>
      <point x="275.5" y="160.0" type="curve" smooth="yes"/>
      <point x="204.5" y="160.0"/>
      <point x="125.5" y="174.0"/>
      <point x="61.5" y="207.0" type="curve"/>
      <point x="61.5" y="33.0" type="line"/>
      <point x="124.5" y="4.0"/>
      <point x="199.5" y="-12.0"/>
    </contour>
  </outline>
</glyph>
<glyph name="one.tab" format="2">
  <advance width="630"/>
  <outline>
    <contour>
      <point x="244.0" y="0" type="line"/>
      <point x="444.0" y="0" type="line"/>
      <point x="444.0" y="752" type="line"/>
      <point x="130.0" y="729" type="line"/>
      <point x="130.0" y="536" type="line"/>
      <point x="244.0" y="548" type="line"/>
    </contour>
  </outline>
</glyph>
<glyph name="six.tab" format="2">
  <advance width="630"/>
  <outline>
    <contour>
      <point x="321.0" y="-14" type="curve" smooth="yes"/>
      <point x="482.0" y="-14"/>
      <point x="600.0" y="80"/>
      <point x="600.0" y="260" type="curve" smooth="yes"/>
      <point x="600.0" y="412"/>
      <point x="505.0" y="497"/>
      <point x="367.0" y="497" type="curve" smooth="yes"/>
      <point x="309.0" y="497"/>
      <point x="264.0" y="481"/>
      <point x="234.0" y="446" type="curve"/>
      <point x="256.0" y="540"/>
      <point x="309.0" y="588"/>
      <point x="387.0" y="588" type="curve" smooth="yes"/>
      <point x="444.0" y="588"/>
      <point x="507.0" y="574"/>
      <point x="561.0" y="549" type="curve"/>
      <point x="561.0" y="721" type="line"/>
      <point x="499.0" y="743"/>
      <point x="429.0" y="754"/>
      <point x="367.0" y="754" type="curve" smooth="yes"/>
      <point x="166.0" y="754"/>
      <point x="30.0" y="591"/>
      <point x="30.0" y="350" type="curve" smooth="yes"/>
      <point x="30.0" y="113"/>
      <point x="142.0" y="-14"/>
    </contour>
    <contour>
      <point x="318.0" y="156" type="curve" smooth="yes"/>
      <point x="265.0" y="156"/>
      <point x="231.0" y="195"/>
      <point x="230.0" y="269" type="curve"/>
      <point x="244.0" y="314"/>
      <point x="272.0" y="344"/>
      <point x="322.0" y="344" type="curve" smooth="yes"/>
      <point x="373.0" y="344"/>
      <point x="406.0" y="307"/>
      <point x="406.0" y="250" type="curve" smooth="yes"/>
      <point x="406.0" y="193"/>
      <point x="371.0" y="156"/>
    </contour>
  </outline>
</glyph>
<glyph name="three.tab" format="2">
  <advance width="630"/>
  <outline>
    <contour>
      <point x="310.0" y="-13.0" type="curve" smooth="yes"/>
      <point x="469.0" y="-13.0"/>
      <point x="566.0" y="68.0"/>
      <point x="566.0" y="195.0" type="curve" smooth="yes"/>
      <point x="566.0" y="281.0"/>
      <point x="517.0" y="351.0"/>
      <point x="423.0" y="377.0" type="curve"/>
      <point x="515.0" y="405.0"/>
      <point x="554.0" y="478.0"/>
      <point x="554.0" y="565.0" type="curve" smooth="yes"/>
      <point x="554.0" y="681.0"/>
      <point x="459.0" y="761.0"/>
      <point x="297.0" y="761.0" type="curve" smooth="yes"/>
      <point x="226.0" y="761.0"/>
      <point x="153.0" y="746.0"/>
      <point x="89.0" y="719.0" type="curve"/>
      <point x="89.0" y="534.0" type="line"/>
      <point x="141.0" y="564.0"/>
      <point x="208.0" y="581.0"/>
      <point x="269.0" y="581.0" type="curve" smooth="yes"/>
      <point x="322.0" y="581.0"/>
      <point x="355.0" y="562.0"/>
      <point x="355.0" y="522.0" type="curve" smooth="yes"/>
      <point x="355.0" y="475.0"/>
      <point x="312.0" y="451.0"/>
      <point x="241.0" y="451.0" type="curve" smooth="yes"/>
      <point x="200.0" y="451.0" type="line"/>
      <point x="200.0" y="296.0" type="line"/>
      <point x="249.0" y="296.0" type="line" smooth="yes"/>
      <point x="321.0" y="296.0"/>
      <point x="367.0" y="274.0"/>
      <point x="367.0" y="230.0" type="curve" smooth="yes"/>
      <point x="367.0" y="187.0"/>
      <point x="330.0" y="167.0"/>
      <point x="272.0" y="167.0" type="curve" smooth="yes"/>
      <point x="204.0" y="167.0"/>
      <point x="129.0" y="187.0"/>
      <point x="72.0" y="223.0" type="curve"/>
      <point x="72.0" y="35.0" type="line"/>
      <point x="150.0" y="5.0"/>
      <point x="234.0" y="-13.0"/>
    </contour>
  </outline>
</glyph>
<glyph name="two.tab" format="2">
  <advance width="630"/>
  <outline>
    <contour>
      <point x="66.5" y="0.0" type="line"/>
      <point x="563.5" y="0.0" type="line"/>
      <point x="563.5" y="184.0" type="line"/>
      <point x="267.5" y="184.0" type="line"/>
      <point x="310.5" y="201.0" type="line" smooth="yes"/>
      <point x="451.5" y="252.0"/>
      <point x="563.5" y="364.0"/>
      <point x="563.5" y="512.0" type="curve" smooth="yes"/>
      <point x="563.5" y="663.0"/>
      <point x="457.5" y="752.0"/>
      <point x="282.5" y="752.0" type="curve" smooth="yes"/>
      <point x="209.5" y="752.0"/>
      <point x="128.5" y="733.0"/>
      <point x="74.5" y="702.0" type="curve"/>
      <point x="74.5" y="511.0" type="line"/>
      <point x="129.5" y="551.0"/>
      <point x="194.5" y="571.0"/>
      <point x="259.5" y="571.0" type="curve" smooth="yes"/>
      <point x="321.5" y="571.0"/>
      <point x="369.5" y="538.0"/>
      <point x="369.5" y="473.0" type="curve" smooth="yes"/>
      <point x="369.5" y="385.0"/>
      <point x="262.5" y="299.0"/>
      <point x="127.5" y="253.0" type="curve" smooth="yes"/>
      <point x="66.5" y="233.0" type="line"/>
    </contour>
  </outline>
</glyph>
<glyph name="zero.tab" format="2">
  <advance width="630"/>
  <outline>
    <contour>
      <point x="315.0" y="-16.0" type="curve" smooth="yes"/>
      <point x="523.0" y="-16.0"/>
      <point x="625.0" y="131"/>
      <point x="625.0" y="371" type="curve" smooth="yes"/>
      <point x="625.0" y="611"/>
      <point x="523.0" y="756"/>
      <point x="315.0" y="756" type="curve" smooth="yes"/>
      <point x="108.0" y="756"/>
      <point x="5.0" y="609"/>
      <point x="5.0" y="369" type="curve" smooth="yes"/>
      <point x="5.0" y="131"/>
      <point x="108.0" y="-16.0"/>
    </contour>
    <contour>
      <point x="315.0" y="163" type="curve" smooth="yes"/>
      <point x="241.0" y="163"/>
      <point x="209.0" y="232"/>
      <point x="209.0" y="371" type="curve" smooth="yes"/>
      <point x="209.0" y="509"/>
      <point x="241.0" y="578"/>
      <point x="315.0" y="578" type="curve" smooth="yes"/>
      <point x="389.0" y="578"/>
      <point x="421.0" y="509"/>
      <point x="421.0" y="369" type="curve" smooth="yes"/>
      <point x="421.0" y="231"/>
      <point x="389.0" y="163"/>
    </contour>
  </outline>
</glyph>
